<svg width="61" height="95" viewBox="0 0 61 95" fill="none" xmlns="http://www.w3.org/2000/svg">
<path d="M29.3853 0C29.3853 0 29.3379 0.452584 29.2346 0.717655C29.1329 0.963109 28.868 1.12826 28.8856 1.29296C28.9031 1.45447 29.075 1.64928 29.3415 1.7841C29.6027 1.92097 29.7078 2.02636 29.9761 2.09479C30.225 2.15638 30.5407 2.33865 30.6301 2.12992C30.7197 1.91755 30.5847 1.65955 30.4338 1.41227C30.1708 0.980673 30.0377 0.875283 29.6501 0.28218C29.5676 0.154435 29.5029 0.0173369 29.3853 0Z" fill="#6A6A6A"/>
<path d="M27.4197 46.6299C27.4459 46.5525 28.0666 46.9458 28.3891 47.1354C29.0678 47.5423 29.3728 47.7844 29.9725 48.2335C30.4478 48.5951 30.6773 48.781 31.1544 49.1916C31.7398 49.6969 32.0555 50.1285 32.2135 50.0304C32.4414 49.7567 31.8401 48.9564 31.3085 48.5216C30.7915 48.0932 30.2567 47.7461 29.8446 47.4757C29.3133 47.121 29.2658 47.0405 28.4717 46.5069C27.6178 45.935 26.8815 45.2158 26.8815 45.2158L26.052 44.5631L24.7529 43.4664L23.3081 42.1346L22.2176 40.9185C22.2176 40.9185 21.3689 39.8799 21.234 39.6796C21.0972 39.4814 20.6974 38.839 20.368 38.2954C20.0733 37.8075 19.5018 37.0497 19.4491 36.9847C19.1405 36.6108 18.4357 36.7618 17.6167 36.2793C16.6226 35.6915 16.3823 35.1545 16.3823 35.1545C16.3823 35.1545 16.3454 35.0758 16.3068 35.0336C16.2699 34.9896 16.1947 34.9353 16.1947 34.9353L15.6738 34.5721L15.3757 34.3755C15.3757 34.3755 15.1495 34.1877 14.8655 34.0666C14.5797 33.9402 13.9432 33.57 13.9432 33.57L12.8053 32.8437C12.8053 32.8437 12.3599 32.4857 12.2126 32.3664C12.062 32.2524 11.7813 32.0893 11.7813 32.0893C11.7813 32.0893 11.6024 31.9996 11.5482 31.9962C11.4939 31.9926 11.2573 31.9716 11.2573 31.9716C11.2573 31.9716 11.038 31.9136 10.8153 32.1753C10.5926 32.4385 10.6471 32.298 11.01 33.7789C11.1536 34.3613 11.1397 36.4162 11.294 37.0424C11.4903 37.846 12.0549 38.8849 12.1128 39.0076C12.1691 39.1287 12.2092 39.5779 12.2092 39.5779C12.2092 39.5779 12.1848 39.9413 12.2233 40.1712C12.3952 41.2326 13.9469 40.5341 14.289 41.9907C14.6257 43.4278 14.0873 44.8613 14.0873 44.8613C14.0873 44.8613 13.754 45.5739 13.2824 45.6859C12.8126 45.795 12.0832 44.7527 11.5554 43.9087C11.0348 43.0786 10.6088 41.9907 10.472 41.6451C10.3352 41.2993 10.2632 41.2237 10.1055 40.973C9.87226 40.5992 9.68465 40.6678 9.42342 40.0781C9.16037 39.4887 9.39356 39.2517 9.27617 38.7377C9.20778 38.4535 9.14646 38.4218 9.05711 38.0146C8.97117 37.6095 8.85537 36.3197 8.85537 36.3197L8.69056 35.1196C8.69056 35.1196 8.63266 34.5721 8.55744 34.2281C8.29621 33.028 8.20503 31.8664 8.20503 31.8664L8.15602 31.3892L8.13847 30.8962C8.13847 30.8962 8.12274 30.6592 8.18064 30.4154C8.23853 30.1717 8.35616 29.9699 8.35616 29.9699C8.35616 29.9699 8.59824 29.5645 8.64018 29.4627C8.68053 29.3663 9.17496 28.7907 9.17496 28.7907C9.17496 28.7907 9.43436 28.5749 9.85699 28.3169C10.2814 28.0589 10.6619 28.0765 10.6619 28.0765C10.6619 28.0765 10.774 28.066 11.5247 28.1591C12.2751 28.2519 13.8181 28.6625 14.2074 28.7627C14.5913 28.8665 15.0508 29.0277 15.3488 29.1943C16.2061 29.661 16.4657 29.463 15.7837 28.9278C15.3242 28.5681 15.1947 28.4066 14.8245 28.0699C14.5122 27.782 14.2669 27.5906 14.0337 27.3258C13.8005 27.0554 13.1361 26.0748 13.1361 26.0748L12.7205 25.4607C12.7205 25.4607 12.4978 25.2081 12.4609 25.1904C12.426 25.1694 12.3136 25.0834 12.3136 25.0834C12.3136 25.0834 12.0385 25.0973 11.7542 25.043C11.4668 24.9851 11.3334 25.3888 11.3334 25.3888C11.3334 25.3888 10.7161 26.5415 10.0886 27.2471C9.0717 28.3927 8.34225 29.1719 7.96887 29.7823C7.44458 30.6282 7.56038 31.5548 7.29026 31.9827C7.13252 32.2337 7.04658 32.2706 6.96064 32.4899C6.69759 33.155 7.65316 33.5198 7.4341 34.2566C7.0851 35.4255 4.34993 36.5816 3.9868 36.3886C3.60977 36.1904 3.91841 34.6095 4.0447 34.0988C4.1744 33.5848 4.55827 32.8268 4.5936 32.7882C4.62688 32.7513 4.71989 32.5722 4.7477 32.4214C4.77756 32.2706 4.78805 31.9285 4.8056 31.7389C4.82315 31.5475 4.90202 31.2459 4.90202 31.2459C4.90202 31.2459 4.91251 31.1809 5.15436 30.6565C5.39804 30.1284 6.28887 28.9 6.92713 27.7279C7.34793 26.9628 7.52323 26.4997 7.94402 25.7328C8.33154 25.0293 8.99602 23.9553 8.99602 23.9553C8.99602 23.9553 9.27639 23.4079 9.40792 23.2044C9.54127 22.9954 9.82165 22.6008 10.0847 22.2112C10.3496 21.8234 10.4143 21.5321 10.7597 21.2127C11.0455 20.946 11.2402 20.8039 11.6136 20.6846C12.1693 20.5003 12.55 20.5988 13.118 20.7567C13.7071 20.918 14.1121 21.1883 14.4981 21.5076C14.8819 21.8307 15.1678 22.1867 15.1678 22.1867L15.3554 22.4639L15.471 22.5323L15.8288 22.7623L16.6476 23.3043C16.6476 23.3043 18.5905 24.6274 18.6992 24.6992C18.8027 24.7677 19.1514 25.0537 19.2198 25.0765C19.2919 25.0975 19.8091 24.5359 20.8244 23.836C21.999 23.0201 22.4146 23.0814 22.8041 22.8693C23.188 22.6569 23.3457 22.4815 23.6475 22.1797C24.1034 21.7234 24.1069 21.4796 24.6241 20.8427C25.1449 20.2076 25.6323 19.8513 25.6323 19.8513C25.6323 19.8513 25.7041 19.7794 26.6319 18.7301C27.5576 17.6844 27.9679 16.8928 27.9679 16.8928L28.4765 15.8734C28.4765 15.8734 29.2127 14.2891 29.4496 13.6625C29.688 13.0345 29.688 12.8255 29.688 12.8255C29.688 12.8255 29.7229 12.6606 29.5442 12.3412C29.36 12.0235 29.1706 12.1674 28.8181 12.2395C28.1432 12.3834 27.7329 12.2078 27.0508 12.0887C26.4267 11.9849 26.1005 11.7974 25.4746 11.6938C24.84 11.5869 24.47 11.4817 23.8333 11.5431C23.7369 11.5536 23.5425 11.5939 23.4492 11.6254C23.0897 11.7447 22.9899 11.7728 22.7234 11.9272C22.4148 12.0712 22.2115 12.1168 21.8695 12.1254C21.6327 12.1325 21.4891 12.1396 21.27 12.0536C21.1191 11.9956 21.0332 11.9518 20.914 11.8449C20.8422 11.7798 20.8036 11.7376 20.7492 11.6535C20.7423 11.5869 20.7211 11.5903 20.7861 11.4817C20.8492 11.3711 20.9281 11.3517 20.9281 11.3517L21.2192 11.2798C21.2192 11.2798 21.6295 11.1728 21.668 11.1621C21.7049 11.1516 22.0959 11.0252 22.2675 10.9709C22.4412 10.9167 22.6307 10.8165 22.6307 10.8165C22.6307 10.8165 22.7357 10.6482 22.6954 10.5517C22.6446 10.4426 22.4114 10.4324 22.4114 10.4324C22.4114 10.4324 22.0852 10.5517 22.0485 10.5622C22.0134 10.5692 21.4925 10.7339 21.4925 10.7339C21.4925 10.7339 21.084 10.8236 20.7667 10.8989C20.4476 10.9707 19.9917 11.0077 19.9917 11.0077L19.8549 10.9707C19.8549 10.9707 19.7006 10.8672 19.6762 10.7586C19.6534 10.6621 19.6393 10.59 19.6217 10.4796C19.5533 10.0758 19.471 9.83196 19.5675 9.4339C19.6044 9.26714 19.6429 9.17407 19.7147 9.01987C19.776 8.89166 19.8164 8.81798 19.8952 8.69685L20.1462 8.28624L20.6197 7.58615C20.7827 7.42122 20.8898 7.33888 21.0947 7.22299C21.3963 7.05464 21.5716 7.00719 21.9486 6.96499C22.3186 6.92462 22.3694 6.92827 22.8937 6.81056C23.4214 6.69125 23.795 6.48253 23.795 6.48253C23.795 6.48253 25.0558 6.01922 25.8236 5.64192C26.6282 5.24728 26.979 4.82594 27.812 4.49974C28.1644 4.36287 28.3695 4.29785 28.7324 4.20501C28.778 4.17513 28.8008 4.14707 28.815 4.09255C28.8501 3.96093 28.6467 3.89956 28.5063 3.91348C28.38 3.92397 28.0926 4.05742 28.0276 3.91348C27.9784 3.80307 28.2904 3.73806 28.2904 3.73806C28.2904 3.73806 28.4377 3.66962 28.4413 3.58727C28.445 3.4609 28.2294 3.54325 28.1327 3.53275C27.6435 3.47823 27.605 3.38881 27.2665 3.30646C26.8685 3.20655 26.6531 3.08359 26.2391 3.06603C25.8744 3.05188 25.5325 3.12921 25.3029 3.18351C25.0768 3.24145 25.0697 3.01858 25.1591 2.97478C25.7992 2.6764 25.8131 2.65177 26.2656 2.63078C26.5127 2.62029 26.8582 2.67298 26.8968 2.69214C26.9337 2.71313 27.4281 2.68872 27.5544 2.55892C27.6841 2.43255 27.1493 2.43962 26.8968 2.33948C26.6638 2.24663 26.3077 2.2204 26.3148 2.06574C26.3271 1.9113 26.499 1.9973 26.6216 1.96582C26.7757 1.92887 26.8653 1.93252 27.023 1.91153C27.3073 1.87298 27.3317 1.84652 27.7525 1.81161C28.168 1.77124 28.7678 1.94848 28.7678 1.94848C28.7678 1.94848 29.3971 2.2277 29.7058 2.37506C30.0144 2.51878 30.3878 2.59428 30.3878 2.59428C30.3878 2.59428 30.8259 2.65565 31.1594 2.44692C31.4977 2.23979 31.3067 2.10292 31.1891 1.91176C31.0733 1.73269 30.9262 1.47309 31.1416 0.981726C31.3329 0.553552 31.4327 0.053521 31.4872 0.00789772C31.5558 -0.046394 31.8205 0.337754 31.9921 0.495839C32.6076 1.07138 33.4214 1.35561 34.1893 2.55915C34.2491 2.65565 34.5331 2.50121 35.4237 2.63808C36.3143 2.77495 37.093 3.72939 37.2895 3.95773C37.493 4.18745 37.7559 4.17513 37.7559 4.17513L38.1837 4.23307L39.737 4.2593C39.737 4.2593 40.442 4.13293 40.8487 4.28759C41.1327 4.39458 42.0796 5.02806 41.6483 5.26826C41.3468 5.43684 41.0627 5.06661 40.7892 5.04904C40.4664 5.02806 40.3262 5.08942 40.0386 5.16128C39.4354 5.31229 38.1416 5.70351 38.6114 5.86137C38.6462 5.87528 38.713 5.88577 38.713 5.88577L38.9444 5.92615C38.9444 5.92615 39.5127 6.05595 39.8562 6.19099C40.375 6.3963 40.6207 6.62282 41.0976 6.9034C41.3709 7.06126 41.4904 7.21934 41.7883 7.30877C42.0619 7.38792 42.2371 7.30876 42.5178 7.35621C42.8859 7.42123 43.0926 7.49673 43.4296 7.65801C43.9308 7.89845 44.1132 8.18975 44.5622 8.51254C44.7865 8.67564 44.9757 8.70028 45.1442 8.91972C45.183 8.96877 45.2146 8.99523 45.2322 9.05294C45.2919 9.253 44.9023 9.13529 44.6956 9.10222C44.4676 9.06367 44.373 8.9512 44.1626 8.85471C43.8506 8.70735 43.7031 8.54584 43.363 8.48448C43.1175 8.43703 42.9702 8.47398 42.7179 8.4879C42.4724 8.49839 42.3427 8.53535 42.097 8.53877C41.6798 8.54584 41.4448 8.50911 41.0345 8.42288C40.5749 8.32662 40.347 8.14755 39.8913 8.05265C39.3757 7.94566 38.4641 7.50358 38.5516 7.94567C38.5972 8.15804 39.0812 8.33688 39.0812 8.33688C39.0812 8.33688 39.4142 8.51596 39.7299 8.65625C40.0456 8.79312 40.2207 9.00207 40.2207 9.00207L40.4382 9.16358C40.4382 9.16358 40.6625 9.47245 40.9572 9.82147C41.2446 10.1655 41.7566 10.1547 41.7566 10.1547C41.7566 10.1547 42.0653 10.1547 42.7313 10.2916C43.3942 10.4285 44.0781 10.8389 44.0781 10.8389C44.0781 10.8389 44.5935 11.1934 44.895 11.5497C45.1932 11.906 45.0213 12.0848 44.9828 12.1216C44.9479 12.1601 44.9616 12.1426 44.9197 12.1601C44.8848 12.1777 44.513 11.711 44.513 11.711L44.2465 11.4847C44.2465 11.4847 43.9869 11.3022 43.6504 11.1934C43.3138 11.0864 43.2014 11.1582 43.2014 11.1582C43.2014 11.1582 42.4861 11.3583 41.8619 11.3407C41.2446 11.3232 40.9221 11.0756 40.9221 11.0756L40.5293 10.8124C40.5293 10.8124 39.9401 10.2597 39.9189 10.5213C39.9048 10.6986 40.1785 10.895 40.1785 10.895C40.1785 10.895 40.3679 11.0861 40.4942 11.2075C40.7327 11.4425 40.8311 11.5602 41.1045 11.8038C41.378 12.0497 41.5462 12.0497 41.5462 12.0497C41.5462 12.0497 41.6935 12.0846 41.7496 12.0953C41.8059 12.1058 41.9041 12.1323 41.9041 12.1323C41.9041 12.1323 41.9953 12.1674 42.4229 12.3412C42.8471 12.513 43.3067 12.8869 43.3067 12.8869C43.3067 12.8869 43.3489 12.922 43.412 12.9343C43.4749 12.9414 43.6012 13.0046 43.6363 13.0151C43.6748 13.0238 43.7836 13.0238 44.0291 13.0589C44.2782 13.0958 44.1834 13.2537 44.1834 13.2537L44.1412 13.3132L43.9377 13.4501C43.9377 13.4501 43.6748 13.5256 43.4959 13.5343C43.3135 13.5448 43.0541 13.4433 43.0541 13.4433L42.5034 13.2361C42.5034 13.2361 41.9461 13.0888 41.8266 13.0694C41.7074 13.0518 41.2095 12.9519 41.1254 12.9343C41.0447 12.9152 40.7958 12.8255 40.7293 12.787C40.6625 12.7503 40.5398 12.7256 40.2382 12.5783C39.9401 12.4309 39.8209 12.2607 39.4493 12.143C39.0741 12.0237 38.8462 11.9993 38.5655 12.1941C38.0816 12.5274 39.2948 12.5819 39.8981 12.8835C40.789 13.3221 41.2902 13.6449 41.5006 14.119C41.7145 14.5943 41.9285 14.7663 41.9285 14.7663C41.9285 14.7663 42.5563 15.0823 42.8367 15.4137C42.991 15.5926 43.0122 15.7402 43.1663 15.919C43.5098 16.3226 44.1763 16.2997 44.3097 16.6419C44.436 16.9611 43.7694 16.8173 43.4223 16.7856C42.7981 16.7243 42.6472 16.1522 42.065 15.9224C41.7357 15.7908 41.5253 15.7908 41.1883 15.6752C40.5747 15.4733 40.2873 15.2084 39.6734 15.0173C39.3016 14.9032 38.6282 14.4137 38.7126 14.7908C38.7265 14.882 38.7826 14.9523 38.8069 15.0068C38.8386 15.0611 38.993 15.2611 38.993 15.2611C38.993 15.2611 39.1997 15.5349 39.2943 15.607C39.3821 15.6825 39.7782 15.9806 40.3463 16.2895C40.9075 16.5983 41.3983 17.1915 41.3983 17.1915C41.3983 17.1915 41.5667 17.4337 41.6474 17.6023C41.7316 17.7919 41.6718 17.8496 41.8052 18.1128C41.9278 18.3742 41.9875 18.4251 42.1558 18.5866C42.5695 18.9849 43.0044 18.9057 43.5303 19.1218C43.6741 19.1831 43.6846 19.2041 43.839 19.3691C43.9933 19.5322 43.8107 19.6022 43.8107 19.6022C43.8107 19.6022 43.2253 19.7532 42.8465 19.7215C42.3557 19.6829 42.1346 19.5319 41.6577 19.2933C41.1738 19.0565 40.9214 18.6302 40.8724 18.604C40.8302 18.5757 40.711 18.4495 40.6198 18.3845C40.5289 18.3197 40.2936 18.2704 40.0832 18.2125C39.8694 18.1548 39.75 18.1441 39.5364 18.0861C39.2453 18.0035 38.9435 17.8756 38.8067 17.8318C38.6699 17.7843 38.3579 17.7282 38.1299 17.8633C37.674 18.1336 38.8382 18.3158 39.1995 18.7039C39.3853 18.8987 39.4623 19.0355 39.6378 19.2409C39.7712 19.3987 39.8273 19.5093 39.9923 19.6321C40.1042 19.7144 40.3112 19.8038 40.3112 19.8038C40.3112 19.8038 40.5916 19.9339 41.0019 20.1602C41.4122 20.3865 41.8925 21.0268 41.8925 21.0268L42.1836 21.4725L42.3555 21.7269L42.401 21.8446L42.464 21.9883C42.464 21.9883 42.6746 22.262 42.8287 22.3514C42.9832 22.4445 42.955 22.5253 42.955 22.5253C42.955 22.5253 42.9376 22.5816 42.8287 22.643C42.7236 22.708 42.6639 22.6535 42.5098 22.6078C42.3555 22.5641 42.2538 22.4167 42.1207 22.3095C41.9802 22.1972 41.833 21.9253 41.5841 21.7709C41.3632 21.6377 41.0757 21.5902 40.9634 21.5551C40.8546 21.5149 40.5811 21.3429 40.4724 21.2955C40.3673 21.2533 40.0832 21.1235 40.0832 21.1235C40.0832 21.1235 39.5364 20.8183 39.2344 20.7359C38.933 20.6515 39.1256 20.8358 39.1256 20.8358C39.1256 20.8358 39.396 21.2569 39.6551 21.4253C39.9921 21.6482 40.4653 21.8448 40.311 22.0252C40.2056 22.1429 40.0655 22.1007 39.9111 22.0832C39.6588 22.0535 39.3536 21.7515 39.3536 21.7515C39.3536 21.7515 39.2275 21.6692 38.6629 21.4901C38.1017 21.3058 38.3086 21.6146 38.4383 21.7814C38.5649 21.9429 38.7367 22.0357 38.7367 22.0357L39.119 22.2077L39.2943 22.262C39.2943 22.262 39.4489 22.2901 39.9572 22.4094C40.4655 22.5253 40.7463 22.7728 40.7463 22.7728C40.7463 22.7728 41.0197 23.0271 41.3983 23.3079C41.784 23.5922 42.1628 23.6643 42.3732 23.6923C42.5836 23.7186 42.5766 23.8659 42.5766 23.8659C42.5766 23.8659 42.6046 24.0012 42.5909 24.045C42.5839 24.0906 42.5383 24.1276 42.4924 24.1276C42.4503 24.1276 42.4295 24.1451 42.3735 24.175C42.3174 24.2031 42.0999 24.2382 42.0999 24.2382C42.0999 24.2382 41.5319 24.2206 41.083 24.11C40.6413 24.0012 40.2483 23.6923 40.2061 23.675C40.1712 23.6574 39.7573 23.4277 39.4698 23.3365C39.1929 23.2434 38.7474 23.2838 38.6982 23.3013C38.6528 23.3189 38.4983 23.3435 38.2355 23.4206C37.969 23.4909 38.302 23.5924 38.302 23.5924L38.4915 23.61L38.9437 23.6451C38.9437 23.6451 39.4137 23.6994 39.8099 23.8467C40.2061 23.9907 40.4657 24.282 40.7288 24.5487C40.9916 24.8101 41.2829 24.9821 41.2829 24.9821L41.4933 25.119L41.6021 25.2013L41.6301 25.2732C41.6301 25.2732 41.6196 25.3101 41.6021 25.3555C41.5845 25.403 41.518 25.4379 41.518 25.4379C41.518 25.4379 41.4197 25.4203 41.3778 25.4203C41.3285 25.4203 41.0306 25.2624 40.8097 25.1659C40.5818 25.066 40.466 24.9711 40.2205 24.9114C40.0101 24.8605 39.7297 24.8377 39.6663 24.8571C39.6034 24.8746 39.1402 24.9397 38.7826 24.9641C38.4251 24.9921 38.1163 24.9974 37.6955 24.9465C37.0959 24.8746 36.2999 24.4006 36.198 24.5325C35.9913 24.8096 36.6225 24.8886 36.9311 25.0658C37.3519 25.3097 38.0814 25.5291 38.0814 25.5291C38.0814 25.5291 38.6143 25.6466 38.9264 25.794C39.6102 26.1117 39.8172 26.5819 40.3677 27.0767C40.6693 27.3538 40.9148 27.4731 41.3215 27.5329C41.6723 27.584 41.6652 27.5418 42.2191 27.433C42.7767 27.3226 43.1136 26.7942 43.2748 26.9875C43.3065 27.0244 43.2923 27.0593 43.2853 27.1138C43.2748 27.1681 43.2294 27.2683 43.2294 27.2683C43.2294 27.2683 43.1663 27.3577 43.068 27.4594C42.9664 27.5593 42.5841 27.7683 42.3842 27.8506C42.1843 27.9332 41.6935 28.0701 41.0762 28.0507C40.4589 28.0331 39.5895 27.5593 39.5895 27.5593L38.9654 27.2961C38.9654 27.2961 38.6777 27.1611 38.4814 27.0874C37.9624 26.8907 37.6328 26.9083 37.0996 26.768C36.77 26.6786 36.5527 26.5855 36.2546 26.5242C35.953 26.4594 36.1249 26.5787 36.1529 26.6206C36.2931 26.8118 36.4823 26.8732 36.721 26.9838C37.0367 27.1382 37.2576 27.1068 37.5801 27.2436C37.9414 27.3894 38.2571 27.5947 38.457 27.7245C38.6533 27.8509 38.8008 27.9948 38.9936 28.1949L39.6563 28.7633C39.6563 28.7633 39.8106 28.8897 39.8282 28.9424C39.8455 28.9969 39.9191 29.1336 39.8842 29.353C39.8455 29.5725 39.6668 29.418 39.6668 29.418L39.4915 29.3058L39.316 29.1443L39.0388 28.9146C39.0388 28.9146 38.8006 28.6986 38.39 28.4898C37.9834 28.2775 37.4924 28.2248 37.4924 28.2248C37.4924 28.2248 37.0574 28.16 37.0716 28.2968C37.0925 28.4319 37.1903 28.4442 37.5341 28.5336C37.8812 28.6233 38.1092 28.7987 38.1092 28.7987C38.1092 28.7987 38.4636 29.0619 38.7194 29.353C38.9718 29.6446 39.0456 29.927 39.0456 29.927C39.0456 29.927 39.1753 30.1656 39.5015 30.4813C39.8277 30.8006 39.9996 30.69 39.9818 30.8447C39.9642 30.9991 39.8204 31.0272 39.8204 31.0272C39.8204 31.0272 39.7363 31.0199 39.7014 31.0199C39.6663 31.0199 39.5822 30.9726 39.491 30.9375C39.3998 30.9024 39.0561 30.6638 39.0561 30.6638C39.0561 30.6638 38.5163 30.2253 38.4566 30.1831C38.3898 30.1357 37.8815 29.755 37.8815 29.755C37.8815 29.755 37.5799 29.562 37.3658 29.4532C37.145 29.3462 36.8539 29.234 36.6891 29.1794C36.5279 29.1267 36.2261 29.1092 36.2261 29.1092C36.2261 29.1092 35.865 29.0549 35.6441 28.9723C35.297 28.8389 34.8935 28.4686 34.8481 28.4511C34.7989 28.4319 34.4763 28.3213 34.4132 28.3317C34.3503 28.3388 34.2028 28.9495 34.1679 29.3022C34.0207 30.7797 34.4132 31.7603 35.0234 33.1151C35.9035 35.0838 38.3547 37.5315 38.3547 37.5315C38.3547 37.5315 38.972 37.8807 39.2316 38.0894C39.9645 38.6634 41.1779 39.4757 42.2545 40.5494C43.1731 41.4706 44.3938 43.1041 44.3938 43.1041C44.3938 43.1041 45.1018 44.0903 45.4316 44.7885C45.8315 45.6449 46.1542 46.9506 46.1542 46.9506C46.1542 46.9506 46.1823 47.1751 46.2033 47.2244C46.2313 47.2697 46.2942 47.3295 46.3366 47.3295L46.7642 47.3437C46.8064 47.3437 47.2938 47.3088 47.6166 47.2278C47.9357 47.147 48.6932 46.7996 49.1981 46.5366C49.6959 46.2697 50.2957 45.7644 50.2957 45.7644C50.2957 45.7644 50.4112 45.6661 50.9936 45.0134C51.5829 44.3608 51.9615 43.3817 52.1051 43.0115C52.2455 42.6449 52.3613 41.9378 52.4455 40.7303C52.5364 39.5181 52.3718 38.2404 52.3718 38.2404C52.3718 38.2404 52.1509 36.4577 52.0174 35.8505C51.8842 35.2471 51.5617 34.2573 51.5617 34.2573C51.5617 34.2573 51.3374 33.3768 51.2672 32.8206C51.1933 32.2642 51.1831 31.3589 51.1831 31.3589C51.1831 31.3589 51.1831 30.8045 51.3616 29.7798C51.5476 28.7604 52.1719 27.732 52.1719 27.732C52.1719 27.732 52.3472 27.3862 53.0208 26.5791C53.7115 25.7527 53.9322 25.6229 54.6126 25.1297C55.1528 24.7419 55.8504 24.1173 56.0788 24.2647C56.3311 24.4225 55.8328 24.7385 55.6646 24.9034C55.2404 25.3245 54.448 26.0684 53.8061 27.1896C53.2451 28.16 53.0347 28.8021 52.8947 29.4356C52.7541 30.0675 52.8141 30.7621 52.8316 30.9991C52.8528 31.2361 52.9823 31.1501 52.9823 31.1501C52.9823 31.1501 54.3463 30.0533 55.0863 29.2235C55.8893 28.3251 56.6046 26.7265 56.885 26.7126C57.0745 26.7003 57.1622 27.1284 57.1166 27.3267C56.9416 28.1566 56.8821 28.2601 56.6115 28.811C56.3031 29.4427 56.0159 29.7235 55.5878 30.3061C55.1387 30.9168 54.918 31.1501 54.557 31.9588C54.0347 33.1222 54.3395 34.0207 54.3395 34.0207C54.3395 34.0207 54.4026 34.5664 54.6479 34.5593C55.0587 34.5452 55.9595 33.4064 56.5488 32.4746C56.984 31.792 57.1415 31.0025 57.4257 30.5883C57.6851 30.2217 57.9133 31.185 57.8009 31.7535C57.671 32.4289 57.338 33.0362 56.6051 33.9925C55.8898 34.9257 55.9108 35.8137 55.9108 35.8137C55.9108 35.8137 55.8371 36.2191 55.7774 37.1035C55.7216 37.984 55.9739 39.3215 55.9739 39.3215C55.9739 39.3215 56.198 40.439 56.244 41.2865C56.2862 42.1392 56.2579 44.0747 55.4617 45.5819C55.1462 46.1855 54.4692 47.0209 54.4692 47.0209C54.4692 47.0209 53.9467 47.5579 53.5189 47.8699C53.0908 48.1824 52.0634 48.6704 52.0634 48.6704C52.0634 48.6704 51.3518 48.9158 51.2535 48.9371C51.1482 48.9651 51.0853 49.0527 51.0853 49.0527C51.0853 49.0527 51.1482 49.1898 51.1762 49.2459C51.2006 49.3023 51.4005 49.7932 51.4005 49.7932C51.4005 49.7932 51.6143 50.488 51.695 51.0391C51.7757 51.59 51.6809 51.7164 51.6041 52.1375C51.5268 52.5413 51.3517 52.3549 51.3059 53.1481C51.2674 53.8502 51.5831 54.2008 51.5268 54.9872C51.5027 55.3312 51.1131 54.5521 50.9237 54.2223C50.5238 53.506 50.6184 52.4042 50.6116 52.1307C50.6009 51.8569 50.5797 51.5549 50.4782 51.2111C50.3556 50.7618 50.1696 50.4146 49.9628 50.1408C49.7522 49.8705 49.5313 49.7163 49.4577 49.7444C49.3841 49.769 49.377 49.9127 49.377 49.983C49.3734 50.0603 49.5206 50.3199 49.5523 50.3762C49.5908 50.4287 49.8539 50.9096 49.8539 50.9096C49.8539 50.9096 49.9695 51.2816 50.015 52.0048C50.0609 52.7206 49.8398 53.6118 49.8398 53.6118C49.8398 53.6118 49.5521 54.6121 49.2507 55.2018C48.9136 55.8508 48.1671 56.7352 48.1671 56.7352C48.1671 56.7352 47.6305 57.2266 47.227 58.0336C46.831 58.8407 47.1711 59.1918 47.0237 59.297C46.8693 59.3987 46.5536 58.8302 46.4695 58.4477C46.3888 58.0898 46.4273 57.9212 46.5748 57.5211C46.7116 57.1351 47.0344 56.5769 47.0344 56.5769L47.5147 55.7593C47.5147 55.7593 48.0968 54.6505 48.2792 53.8431C48.4616 53.0431 48.2512 52.1519 48.2512 52.1519C48.2512 52.1519 48.2268 51.8572 48.0269 51.8711C47.8233 51.8816 47.6833 52.0572 47.599 52.2712C47.434 52.7133 47.6692 52.6328 47.4164 53.3696C47.2204 53.9485 47.1641 53.8714 47.0588 54.2152C46.9325 54.6258 46.8659 55.0469 46.8732 55.3033C46.8837 55.5558 46.7435 55.4507 46.7435 55.4507C46.7435 55.4507 46.498 54.9942 46.498 54.426C46.498 54.1171 46.5121 53.9417 46.5472 53.6326C46.6033 53.1378 46.8066 52.38 46.8066 52.38C46.8066 52.38 47.0241 51.6325 46.9785 50.9515C46.9263 50.2638 46.6877 50.1376 46.6877 50.1376C46.6877 50.1376 46.6247 50.0464 46.358 50.0603C46.0952 50.0815 46.1091 50.5551 46.1091 50.5551C46.1091 50.5551 46.0284 51.2326 45.9233 51.6535C45.6322 52.815 45.2431 53.4257 44.5556 54.4048C43.9315 55.2892 43.0865 56.0684 42.6618 56.4334C42.241 56.8055 40.9435 57.7494 40.9435 57.7494L39.4217 58.7634C39.4217 58.7634 38.8186 59.3531 38.5448 60.055C38.2644 60.7535 38.2783 61.3007 38.4395 61.9429C38.6011 62.5887 38.8325 62.8834 38.9551 63.0657C39.0743 63.2416 39.3096 63.557 39.3866 63.9293C39.4356 64.1572 39.4008 64.2941 39.4147 64.5256C39.429 64.7293 39.4568 64.8416 39.4498 65.0487C39.4427 65.3715 39.5022 65.5994 39.3164 65.8626C39.1831 66.0627 38.8183 66.2381 38.8183 66.2381C38.8183 66.2381 38.4048 66.4204 38.1589 66.5714C35.5707 68.1331 34.6523 69.1473 33.1934 70.8878C32.7305 71.4458 33.0708 71.4109 32.5764 72.0706C32.2764 72.4638 31.5839 72.4638 31.3331 72.9338C30.9844 73.5759 32.1186 74.2078 30.8088 74.7728C29.1204 75.5028 26.215 74.9797 26.1571 74.7518C25.9993 74.127 26.7251 73.4044 26.9829 73.1165C28.1646 71.8249 29.2203 71.7932 29.6078 70.7231C29.6919 70.495 29.6586 70.2986 30.6 69.6001C31.2611 69.1121 33.9017 67.1225 35.0556 65.796C35.4517 65.3398 35.7918 65.0382 35.9637 64.5466C36.1392 64.0479 35.7918 63.7359 35.7918 63.7359L35.3184 62.9637L34.4102 61.3388C34.4102 61.3388 34.0282 60.4756 33.8212 59.9772C33.6074 59.4788 33.211 58.1381 33.211 58.1381C33.211 58.1381 32.9201 56.9312 32.8707 56.1448C32.7831 54.7342 32.976 53.9132 33.348 52.5445C33.8283 50.7688 34.9188 50.0247 35.3537 48.263C35.4802 47.7508 35.508 46.8733 35.2484 46.9155C35.0029 46.9611 34.9819 47.6523 34.7927 48.1158C34.0913 49.8634 33.1654 50.6285 32.6571 52.4391C32.317 53.6639 32.1768 54.3906 32.18 55.6608C32.1838 56.3871 32.1556 56.2539 32.3414 57.5138C32.415 57.9768 32.5271 58.226 32.6641 58.6785C32.7622 59.0015 33.0252 59.6051 33.0252 59.6051C33.0252 59.6051 33.3865 60.4017 33.5128 60.9597C33.5511 61.1529 33.6006 61.2613 33.5862 61.4545C33.5618 61.7878 33.6213 61.8583 33.4601 62.1598C33.2602 62.5355 33.3826 62.7566 32.7446 62.8966C32.1765 63.0159 31.0158 62.637 31.0158 62.637C31.0158 62.637 26.2448 61.1912 23.1992 61.6087C22.596 61.6894 22.2716 61.9105 21.6651 61.9C21.1127 61.8929 20.8321 61.4611 20.2798 61.6263C20.1676 61.658 20.1325 61.7385 20.0309 61.8053C19.2244 62.3667 19.8415 63.3002 17.7165 62.8159C16.4119 62.5175 14.8322 61.7177 15.1055 61.2156C15.4719 60.5489 15.9629 60.4401 16.9941 60.0153C18.0969 59.5661 19.7521 59.6925 20.0783 59.6715C20.4763 59.6398 21.048 59.3627 21.7597 59.3451C22.9906 59.3239 23.2097 59.4715 23.2097 59.4715L25.2995 59.6572L29.2991 59.7067C29.2991 59.7067 30.0144 59.654 30.2985 59.5976C30.5861 59.5413 30.8123 58.9765 30.9698 58.7061C31.1243 58.4397 30.9629 58.0464 30.9629 58.0464L30.8439 57.8605L30.4633 57.2464L29.7603 56.0602L28.98 54.5022C28.98 54.5022 28.4698 53.4179 28.1981 52.7055C27.928 51.9965 27.7703 51.5964 27.5913 50.8633C27.4037 50.1084 27.2879 49.498 27.2635 48.891C27.2339 48.0196 27.176 47.3423 27.4197 46.6299Z" fill="#6A6A6A"/>
<path d="M53.3831 45.1842C54.2244 44.1034 54.3056 43.0995 54.3544 41.6854C54.3929 40.6573 54.004 39.0728 54.004 39.0728L53.9511 38.9569C53.9511 38.9569 53.8039 38.7655 53.7131 39.0182C53.727 39.2413 53.7553 39.4202 53.7553 39.4202L53.8041 41.4609C53.8041 41.4609 53.7409 42.489 53.3906 43.5489C52.8013 45.3387 51.2374 46.1352 51.0096 46.781C50.6196 47.8511 52.3767 46.4861 53.3831 45.1842Z" fill="white"/>
<path d="M44.5602 48.4867C44.5602 48.4867 44.2165 48.585 44.2094 48.9252C44.2025 49.2657 44.2935 49.5605 44.283 49.9711C44.2762 50.4941 43.7957 51.0975 44.1043 51.2941C44.6338 51.6311 45.0895 49.2587 44.9283 48.9078C44.7669 48.5565 44.6092 48.4828 44.5602 48.4867Z" fill="white"/>
<path d="M38.6203 64.9344C38.6203 64.9344 38.5218 64.8819 38.3292 64.9556C38.14 65.029 38.1537 65.2259 38.1537 65.2259C38.1537 65.2259 38.1152 65.4365 38.2695 65.4577C38.424 65.4857 38.6764 65.1066 38.6764 65.0644C38.6764 65.0222 38.6203 64.9344 38.6203 64.9344Z" fill="white"/>
<path d="M33.0302 68.9105C33.0302 68.9105 32.9739 68.9669 33.0231 69.0052C33.0755 69.0511 33.1494 68.9947 33.1494 68.9947C33.1494 68.9947 34.1136 68.2403 34.6853 67.7104C35.2885 67.142 36.1583 66.1629 36.1583 66.1629C36.1583 66.1629 36.2178 66.0892 36.1513 66.026C36.0808 65.9628 35.9163 66.0609 35.7795 66.1241C35.6603 66.1873 35.5901 66.2539 35.4991 66.3278C35.415 66.4051 35.1273 66.6999 35.1273 66.6999L34.3838 67.4228L33.9137 67.8649L33.4581 68.2999L33.2686 68.5177C33.2686 68.5177 33.2194 68.6019 33.2057 68.6229C33.1913 68.6473 33.1426 68.7105 33.1426 68.7105C33.1426 68.7105 33.0721 68.7773 33.0721 68.7983C33.0721 68.8159 33.0512 68.8334 33.0512 68.8546C33.0441 68.8825 33.0302 68.9105 33.0302 68.9105Z" fill="white"/>
<path d="M31.3636 70.0058C31.3636 70.0058 31.2601 69.9216 31.0971 70.0022C30.9323 70.09 30.757 70.3142 30.7426 70.3391C30.7271 70.3708 30.6375 70.4901 30.6991 70.5953C30.7604 70.7007 30.969 70.546 31.0004 70.5391C31.0303 70.5391 31.3022 70.3217 31.3022 70.3217C31.3022 70.3217 31.46 70.2232 31.3636 70.0058Z" fill="white"/>
<path d="M28.1701 73.2411C28.1701 73.2411 28.0334 72.9886 27.8544 73.0937C27.6755 73.1991 27.5775 73.2343 27.4126 73.4621C27.3846 73.5007 27.2075 73.729 27.1758 73.7886C27.1443 73.8449 26.9672 74.1818 27.3267 74.2063C27.944 74.2412 27.5387 73.8449 27.7509 73.6903C27.9228 73.5712 28.2453 73.6027 28.249 73.4763C28.2524 73.3501 28.1701 73.2411 28.1701 73.2411Z" fill="white"/>
<path d="M17.2286 60.3126C17.2286 60.3126 16.8587 60.4041 16.8306 60.5305C16.8008 60.6637 17.0463 60.7901 17.0848 60.7969C17.1286 60.804 17.2111 60.9023 17.4582 60.7337C17.7019 60.569 17.6914 60.4285 17.6914 60.4285C17.6914 60.4285 17.8352 60.2602 17.2286 60.3126Z" fill="white"/>
<path d="M23.2464 60.116C23.2464 60.116 23.2427 59.9792 22.9815 59.997C22.715 60.0111 22.6589 60.0599 22.6519 60.1021C22.6432 60.1407 22.666 60.2075 22.9026 60.2285C23.1429 60.2426 23.2393 60.2283 23.2464 60.116Z" fill="white"/>
<path d="M28.9366 60.281C28.4579 60.2774 28.6088 60.2917 28.3143 60.3057C27.7795 60.3337 27.4884 60.3125 26.9607 60.2774C26.2206 60.2283 25.0758 60.0458 25.0758 60.0458C25.0758 60.0458 24.932 60.0109 24.8741 60.1056C24.8214 60.1932 25.0143 60.3967 25.1861 60.4496C26.1241 60.7409 26.175 60.6919 26.8132 60.7021C27.1693 60.7058 27.3674 60.6704 27.7216 60.6494C28.1705 60.6148 28.379 60.6846 28.8682 60.5548C28.9961 60.5231 29.119 60.2847 28.9366 60.281Z" fill="white"/>
<path d="M32.1417 59.3301C32.1417 59.3301 32.0453 59.218 31.8469 59.3161C31.6509 59.4108 31.5315 59.6248 31.5315 59.6248C31.5315 59.6248 31.4387 59.7721 31.6368 59.7514C31.8296 59.7233 32.0031 59.6392 32.0487 59.6111C32.0995 59.5826 32.2434 59.4494 32.1417 59.3301Z" fill="white"/>
<path d="M29.3517 20.8312C29.3517 20.8312 30.7052 19.5627 31.6747 17.8853C32.2496 16.885 32.5003 14.5567 32.0061 15.1356C31.7832 15.4007 31.5133 16.6079 31.0854 17.5026C30.4752 18.7764 29.1725 20.5803 29.1725 20.5803C29.1725 20.5803 28.8923 21.1805 29.3517 20.8312Z" fill="white"/>
<path d="M23.9414 24.0547C23.9414 24.0547 23.7976 24.1669 23.8626 24.346C23.9309 24.5285 24.2063 24.3916 24.2063 24.3916C24.2063 24.3916 24.8323 24.1548 25.4881 24.1302C26.1455 24.1021 27.0573 24.2985 27.0573 24.2985C27.0573 24.2985 27.492 24.4178 27.564 24.4459C27.6358 24.4758 27.8727 24.5898 27.913 24.6038C27.9481 24.6195 28.1742 24.7301 28.3005 24.6161C28.4268 24.5002 27.5098 23.6669 26.5736 23.5405C25.0146 23.3281 23.9909 24.0002 23.9909 24.0002L23.9414 24.0547Z" fill="white"/>
<path d="M17.5199 29.5483C17.6302 29.6432 18.1511 28.65 18.5858 28.0217C18.9049 27.5621 19.4874 26.7935 19.4874 26.7935C19.4874 26.7935 19.7502 26.4409 19.305 26.6375C19.1245 26.7183 18.63 27.0953 18.281 27.7886C17.9863 28.378 17.4041 29.4552 17.5199 29.5483Z" fill="white"/>
<path d="M13.9188 25.2335C13.9188 25.2335 13.8064 25.6179 14.2554 26.0985C14.7077 26.5812 14.8235 26.9793 15.1112 26.6916C15.19 26.6127 14.8306 25.9635 14.6482 25.7828C14.4606 25.6037 14.3272 25.4564 14.3272 25.4564L14.2098 25.3599L14.0589 25.2757L13.973 25.2408C13.973 25.2408 13.9502 25.2196 13.9188 25.2335Z" fill="white"/>
<path d="M12.4598 21.5488C12.4598 21.5488 11.9725 21.6401 11.8533 21.8769C11.7322 22.1139 12.4142 21.9699 12.4142 21.9699C12.4142 21.9699 12.8665 21.9943 12.8772 21.8226C12.8877 21.6471 12.8195 21.6296 12.4598 21.5488Z" fill="white"/>
<path d="M4.71475 34.3929C4.46583 34.321 4.42389 34.8108 4.39038 34.9684C4.36234 35.1263 4.50276 35.4422 4.56043 35.4422C4.61651 35.4386 4.8146 35.1299 4.82508 34.9791C4.83579 34.8247 4.93404 34.4616 4.71475 34.3929Z" fill="white"/>
<path d="M12.7581 43.9593C12.7581 43.9593 12.3126 43.6064 12.2443 43.7469C12.1777 43.8872 12.6108 44.5066 12.6108 44.5066C12.6108 44.5066 12.7439 44.7103 12.9491 44.6188C13.1506 44.5207 13.0788 44.296 13.0788 44.296C13.0788 44.296 12.942 44.0084 12.7581 43.9593Z" fill="white"/>
<path d="M9.40024 33.6138C9.40024 33.6138 9.28627 33.5841 9.24592 33.7208C9.20375 33.8577 9.20739 34.0805 9.17753 34.3506C9.15314 34.5614 9.23201 35.1228 9.23201 35.1228C9.23201 35.1228 9.27578 35.5685 9.36514 35.8336C9.46156 36.1247 9.71755 36.5389 9.71755 36.5389C9.71755 36.5389 9.81397 36.7513 9.93319 36.7408C10.0506 36.7285 10.0225 36.5898 10.0225 36.5898C10.0225 36.5898 9.64916 35.1091 9.63868 34.9581C9.59468 34.4651 9.59468 33.865 9.59468 33.865L9.59126 33.7753C9.59126 33.7753 9.58762 33.6172 9.40024 33.6138Z" fill="white"/>
<path d="M9.98198 29.0958C9.98198 29.0958 9.77683 29.0572 9.58763 29.4518C9.39661 29.852 9.43695 30.0135 9.45428 30.031C9.46841 30.0486 9.61909 30.0452 9.86117 29.6749C10.1014 29.3081 10.0469 29.1676 10.0469 29.1676C10.0469 29.1676 10.0328 29.0958 9.98198 29.0958Z" fill="white"/>
<path d="M15.6243 33.1892C15.6243 33.1892 15.8714 33.5592 15.3981 33.4734C14.9231 33.3874 13.9254 32.5995 13.5185 32.3874C13.1168 32.175 12.4558 32.1082 12.7329 31.8593C12.7838 31.8171 12.7977 31.7765 12.8766 31.7733C12.9591 31.7696 13.2326 31.8766 13.2499 31.8889C13.2641 31.8958 13.9671 32.1871 13.9933 32.1942C14.0179 32.2047 14.4125 32.3732 14.6929 32.5379C14.9735 32.7045 15.4292 33.0238 15.4292 33.0238L15.6243 33.1892Z" fill="white"/>
<path d="M28.7769 44.5209C28.9066 44.9279 27.2795 43.6609 26.408 42.9889C24.0989 41.2096 21.2723 37.5618 21.6247 37.239C21.9158 36.9739 23.0747 38.6444 24.7738 40.4849C26.5904 42.4467 28.7014 44.2787 28.7769 44.5209Z" fill="white"/>
<path d="M35.5686 42.7765C35.0637 43.3151 34.885 44.0049 35.1759 44.5207C35.4599 45.0223 35.5476 43.7871 35.8634 43.4239C36.1369 43.1062 36.3051 43.1573 36.754 42.8379C37.5185 42.2993 36.2071 42.0906 35.5686 42.7765Z" fill="white"/>
<path d="M32.68 31.2627C32.3328 31.2066 32.3433 31.7346 32.3923 32.1085C32.6239 33.7822 33.3746 35.072 34.3771 36.2863C34.9875 37.0267 36.6602 38.3461 36.8529 38.134C36.9233 38.0585 35.2609 36.7724 34.2018 35.1197C33.4514 33.9476 33.0516 32.9562 32.957 31.9892C32.9467 31.8663 32.9745 31.3101 32.68 31.2627Z" fill="white"/>
<path d="M26.2022 6.45334C25.4481 6.86212 24.1402 7.22209 24.1402 7.22209C24.1402 7.22209 24.0804 7.35189 24.2489 7.33797C25.3695 7.24832 25.7971 7.10803 26.3935 6.84478C26.9895 6.58701 27.4227 5.87095 27.4227 5.87095C27.4227 5.87095 27.6647 5.42522 27.2159 5.79203C27.0755 5.90426 26.6159 6.22705 26.2022 6.45334Z" fill="white"/>
<path d="M35.2994 3.57778C35.2994 3.57778 35.0434 3.52144 34.8715 3.62865C34.6996 3.73747 34.7487 3.82347 34.7487 3.82347C34.7487 3.82347 35.0154 4.02695 35.2046 4.06048C35.394 4.08854 35.8006 4.26578 35.787 4.12891C35.7692 3.98862 35.5415 3.73769 35.4605 3.66926C35.3871 3.59695 35.2994 3.57778 35.2994 3.57778Z" fill="white"/>
<path d="M31.0179 11.4388C31.0615 11.5282 31.826 11.3194 32.1207 11.1543C32.3505 11.0245 32.4415 10.5892 32.4415 10.5892C32.4415 10.5892 32.5046 10.1681 32.4066 10.3312C31.9698 11.0457 30.9755 11.3473 31.0179 11.4388Z" fill="white"/>
<path d="M30.9932 9.47515C31.3019 8.88205 30.1462 10.0911 29.5572 10.4034C29.1977 10.5929 28.6121 10.8454 28.6121 10.8454C28.6121 10.8454 28.4578 11.0384 28.6734 11.0209C28.889 11.0067 29.4379 11.1929 29.8834 10.8489C29.9887 10.7647 30.4514 10.0908 30.4514 10.0908C30.4514 10.0908 30.8458 9.75573 30.9932 9.47515Z" fill="white"/>
<path d="M30.8137 11.9984C30.8381 12.0949 32.1338 12.0632 32.4584 11.9651C32.7144 11.8948 32.8546 11.4422 32.8546 11.4422C32.8546 11.4422 33.0089 11.0458 32.8755 11.179C32.2883 11.7792 30.7912 11.9019 30.8137 11.9984Z" fill="white"/>
<path d="M10.0028 23.8756C10.0028 23.8756 9.80656 23.8037 9.56288 24.1703C9.3208 24.5353 8.23028 26.1935 8.42313 26.4373C8.65267 26.725 9.59776 24.9564 9.88566 24.6265C10.1765 24.2914 10.0573 23.9545 10.0573 23.9545C10.0573 23.9545 10.0539 23.879 10.0028 23.8756Z" fill="white"/>
<path d="M33.7599 53.7716C33.6407 54.3225 33.7809 55.4492 33.9705 55.67C34.4333 56.228 34.1492 54.7963 34.2158 54.2942C34.2719 53.8277 34.328 53.6662 34.5596 53.1678C34.9733 52.2695 34.0022 52.5993 33.7599 53.7716Z" fill="white"/>
<path d="M29.7795 5.85706C29.7795 5.85706 29.4203 5.86756 29.1397 6.02199C28.8556 6.17643 28.7854 6.39587 28.7854 6.39587C28.7854 6.39587 28.7275 6.55373 28.7663 6.63973C28.8486 6.82747 29.2379 6.54324 29.5096 6.63608C29.7287 6.71501 29.834 6.78002 30.0022 6.98168C30.1495 7.15733 30.4073 7.40985 30.5687 7.26591C30.7351 7.12562 30.674 6.76588 30.674 6.76588C30.674 6.76588 30.4828 6.17985 30.2322 6.01492C29.9794 5.84657 29.7795 5.85706 29.7795 5.85706Z" fill="white"/>
<path d="M23.808 9.97871C23.808 9.97871 23.6063 10.0102 23.6537 10.2559C23.7011 10.4963 23.8326 10.4593 23.8326 10.4593C23.8326 10.4593 24.25 10.2803 24.2254 10.0296C24.1955 9.77682 23.808 9.97871 23.808 9.97871Z" fill="white"/>
<path d="M20.8918 8.66985C20.8918 8.66985 20.6728 8.67875 20.5184 8.95044C20.3678 9.22076 20.2782 9.50157 20.2782 9.50157C20.2782 9.50157 20.2064 9.85606 20.3324 9.96829C20.4605 10.0787 20.6007 9.73858 20.7847 9.60513C20.895 9.5262 20.9636 9.49107 21.0776 9.41032C21.2337 9.3031 21.4879 9.43997 21.4704 9.12426C21.4478 8.8065 21.1111 8.65571 20.8918 8.66985Z" fill="white"/>
<path d="M30.3143 5.27446C30.3143 5.27446 29.8183 5.20261 29.8375 5.39377C29.855 5.57261 30.106 5.46563 30.2671 5.53771C30.4249 5.60957 30.5302 5.63763 30.6563 5.75351C30.7493 5.83586 30.7385 5.99737 30.8528 6.00079C31.0105 6.00444 30.979 5.93942 30.979 5.93942C30.979 5.93942 30.8352 5.51125 30.6478 5.39035C30.4618 5.26739 30.3143 5.27446 30.3143 5.27446Z" fill="white"/>
<path d="M35.8498 7.27646C35.7796 7.54678 35.7375 7.63962 35.7375 7.63962C35.7375 7.63962 35.5975 8.18893 36.1514 7.98705C36.7056 7.78334 36.4179 7.86934 36.8175 7.67475C37.2105 7.48176 37.2034 7.58875 37.4911 7.60289C37.5891 7.60632 37.6522 7.60974 37.7997 7.58191C37.9258 7.55362 37.8731 7.40626 37.5927 7.33075C37.2914 7.25182 36.923 7.26939 36.4954 7.26574C36.2428 7.26254 35.9235 7.00637 35.8498 7.27646Z" fill="white"/>
<path d="M36.0957 5.24637C36.0957 5.24637 35.8431 5.18843 35.6678 5.29724C35.496 5.40422 35.5486 5.49023 35.5486 5.49023C35.5486 5.49023 35.8117 5.69918 36.0045 5.72724C36.1939 5.76054 36.6006 5.93597 36.5867 5.79567C36.5655 5.6588 36.3412 5.40445 36.2605 5.33602C36.18 5.26735 36.0957 5.24637 36.0957 5.24637Z" fill="white"/>
<path d="M37.0701 9.05951C37.0701 9.05951 36.7997 9.00499 36.614 9.10855C36.4316 9.21029 36.4806 9.29287 36.4806 9.29287C36.4806 9.29287 36.7683 9.48608 36.9716 9.51574C37.1752 9.5438 37.6099 9.70873 37.5923 9.5771C37.575 9.4473 37.3293 9.20687 37.2486 9.14209C37.1679 9.07684 37.0701 9.05951 37.0701 9.05951Z" fill="white"/>
<path d="M37.155 10.4419C37.155 10.4419 36.8671 10.3771 36.6708 10.4964C36.4745 10.6139 36.5338 10.7088 36.5338 10.7088C36.5338 10.7088 36.8322 10.9351 37.0496 10.9668C37.2635 11.0001 37.7264 11.1896 37.7052 11.0386C37.6879 10.8878 37.4283 10.6141 37.3371 10.5404C37.253 10.4629 37.155 10.4419 37.155 10.4419Z" fill="white"/>
<path d="M37.2842 11.7894C37.2842 11.7894 36.9722 11.7175 36.7615 11.8507C36.5477 11.984 36.6143 12.0912 36.6143 12.0912C36.6143 12.0912 36.9368 12.3437 37.1684 12.3825C37.4035 12.4194 37.9047 12.635 37.884 12.4648C37.8628 12.2965 37.5822 11.984 37.4841 11.9016C37.393 11.8138 37.2842 11.7894 37.2842 11.7894Z" fill="white"/>
<path d="M37.2557 13.4563C37.2557 13.4563 36.9437 13.3897 36.7331 13.5213C36.5192 13.6511 36.579 13.7581 36.579 13.7581C36.579 13.7581 36.9084 14.0106 37.1399 14.0494C37.3715 14.0864 37.8728 14.3022 37.8518 14.1336C37.8275 13.9634 37.5503 13.6511 37.4557 13.5685C37.3574 13.4828 37.2557 13.4563 37.2557 13.4563Z" fill="white"/>
<path d="M37.028 16.706C37.028 16.706 36.7122 16.6376 36.5018 16.771C36.2914 16.9027 36.3546 17.008 36.3546 17.008C36.3546 17.008 36.6771 17.2624 36.9087 17.2993C37.1438 17.3345 37.6452 17.5537 37.6243 17.3817C37.6031 17.2134 37.3229 16.9027 37.2244 16.8167C37.1296 16.7307 37.028 16.706 37.028 16.706Z" fill="white"/>
<path d="M37.2385 15.0813C37.2385 15.0813 36.8806 14.9989 36.6281 15.1531C36.386 15.3039 36.4598 15.4269 36.4598 15.4269C36.4598 15.4269 36.835 15.7216 37.1049 15.7638C37.3716 15.8076 37.9538 16.0551 37.9326 15.8621C37.9046 15.6639 37.5818 15.3042 37.4699 15.2077C37.3575 15.1093 37.2385 15.0813 37.2385 15.0813Z" fill="white"/>
<path d="M36.874 18.1765C36.874 18.1765 36.6144 18.1149 36.4393 18.2256C36.2638 18.3344 36.3201 18.4204 36.3201 18.4204C36.3201 18.4204 36.5866 18.6328 36.776 18.6608C36.9689 18.6925 37.3792 18.8695 37.365 18.7292C37.3441 18.5887 37.1161 18.3344 37.0357 18.2659C36.9584 18.1941 36.874 18.1765 36.874 18.1765Z" fill="white"/>
<path d="M36.6277 19.5836C36.6277 19.5836 36.4173 19.538 36.2701 19.6277C36.1301 19.7171 36.1718 19.7889 36.1718 19.7889C36.1718 19.7889 36.3927 19.9609 36.5507 19.9872C36.7082 20.0118 37.0556 20.1628 37.0415 20.0435C37.0273 19.9295 36.8311 19.7171 36.7679 19.6591C36.7014 19.6012 36.6277 19.5836 36.6277 19.5836Z" fill="white"/>
<path d="M36.3266 20.8681C36.3266 20.8681 36.1372 20.8243 36.0039 20.9066C35.8776 20.9856 35.9127 21.054 35.9127 21.054C35.9127 21.054 36.1126 21.2084 36.2564 21.2296C36.4003 21.2559 36.7087 21.3875 36.695 21.2839C36.6843 21.1804 36.5124 20.9856 36.4527 20.9347C36.393 20.8822 36.3266 20.8681 36.3266 20.8681Z" fill="white"/>
<path d="M36.0249 21.9209C36.0249 21.9209 35.8286 21.8769 35.7026 21.9558C35.569 22.0384 35.6078 22.1032 35.6078 22.1032C35.6078 22.1032 35.8077 22.2611 35.9515 22.2823C36.0953 22.3051 36.4038 22.4401 36.3899 22.3334C36.3794 22.2298 36.2075 22.0386 36.1444 21.9875C36.0881 21.9351 36.0249 21.9209 36.0249 21.9209Z" fill="white"/>
<path d="M35.6572 23.1421C35.6572 23.1421 35.5029 23.1051 35.3942 23.1701C35.2889 23.2385 35.324 23.2894 35.324 23.2894C35.324 23.2894 35.4851 23.416 35.6009 23.437C35.7167 23.4543 35.9691 23.5634 35.9554 23.4753C35.9447 23.393 35.8045 23.2385 35.7589 23.1947C35.7097 23.1525 35.6572 23.1421 35.6572 23.1421Z" fill="white"/>
<path d="M35.2183 24.2843C35.2183 24.2843 35.0849 24.2526 34.9938 24.3087C34.9028 24.3667 34.9308 24.4139 34.9308 24.4139C34.9308 24.4139 35.071 24.5209 35.1693 24.535C35.2675 24.5544 35.4848 24.6475 35.4743 24.572C35.4674 24.5001 35.3446 24.3667 35.306 24.3315C35.26 24.2948 35.2183 24.2843 35.2183 24.2843Z" fill="white"/>
<path d="M34.7664 25.3705C34.7664 25.3705 34.6294 25.3406 34.5384 25.3986C34.4504 25.4528 34.4821 25.4985 34.4821 25.4985C34.4821 25.4985 34.6155 25.6073 34.7171 25.6248C34.8188 25.639 35.0326 25.7318 35.0221 25.6618C35.0153 25.5845 34.8924 25.4528 34.8539 25.4161C34.812 25.3808 34.7664 25.3705 34.7664 25.3705Z" fill="white"/>
<path d="M5.41081 30.896C5.41081 30.896 5.18469 31.3344 5.29684 31.5751C5.4074 31.8174 5.71239 31.1907 5.71239 31.1907C5.71239 31.1907 6.02788 30.5659 5.9 30.4521C5.77029 30.3362 5.69507 30.659 5.41081 30.896Z" fill="white"/>
<path d="M37.3294 87.2325V86.38C37.3294 84.4426 38.308 84.0637 41.1661 84.0498C43.7962 84.0637 44.7253 84.3936 44.7253 86.0641V92.5107H45.6966V93.9635H39.2723C37.9187 93.9635 37.0352 93.0335 37.0352 91.8895V90.5838C37.0352 89.4573 37.61 88.4748 39.6231 88.4641H42.134V86.5023C42.134 85.4776 42.0637 85.3549 41.0366 85.3549H41.0259C39.7952 85.3549 39.7145 85.5164 39.7145 86.5023V87.2323H37.3294V87.2325ZM40.3106 89.5454C39.8057 89.5454 39.5075 89.9523 39.5075 90.4576V91.7033C39.5075 92.2054 39.7216 92.6053 40.3106 92.6124H41.2153C41.7134 92.6124 42.1203 92.458 42.1203 91.7033L42.1271 89.5454H41.2714C41.2504 89.5454 40.3106 89.5454 40.3106 89.5454Z" fill="#6A6A6A"/>
<path d="M31.2186 86.4781V84.225H27.6348V85.5657H28.5903V92.507H27.6348V93.9635H32.1236V92.507H31.2186V88.7873C31.2186 88.4402 33.3315 85.7696 33.3315 86.078V89.7733H35.8145V85.6149C35.8145 84.6639 35.1936 84.05 34.0609 84.05C32.7142 84.0498 31.8042 85.7447 31.2186 86.4781Z" fill="#6A6A6A"/>
<path d="M59.7866 92.5003V84.2251H56.1289V85.5657H57.1531V92.5003H56.1289V93.9636H60.7474V92.5003H59.7866Z" fill="#6A6A6A"/>
<path d="M21.9979 86.4781V84.225H18.4141V85.5657H19.3696V92.507H18.4141V93.9635H22.8992V92.507H21.9979V88.7873C21.9979 88.4402 24.1089 85.7696 24.1089 86.078V89.7733H26.59V85.6149C26.59 84.6639 25.9727 84.05 24.8384 84.05C23.4951 84.0498 22.5835 85.7447 21.9979 86.4781Z" fill="#6A6A6A"/>
<path fill-rule="evenodd" clip-rule="evenodd" d="M17.0433 90.7735H14.529V91.5035C14.529 92.4933 14.3642 92.5353 13.1385 92.5492H13.121C11.7163 92.5563 11.7954 92.416 11.8112 91.5035V89.7733H17.0431V86.0148C17.0431 84.653 16.0157 84.0811 13.3049 84.0708H12.9158C9.98939 84.0847 9.21094 84.7515 9.21094 86.4361V91.9385C9.21094 93.7913 10.3049 94.1038 12.9701 94.1775H13.2609C16.17 94.1107 17.0431 93.9106 17.0431 92.1806V90.7735H17.0433ZM11.8394 86.1551C11.8394 85.643 11.9938 85.39 12.5794 85.3829H13.6822C14.1381 85.3829 14.3923 85.5866 14.3923 85.9514V88.7695H11.8392V86.1551H11.8394Z" fill="#6A6A6A"/>
<path d="M58.4619 82.2249V80.4631" stroke="#6A6A6A" stroke-width="0.537986" stroke-miterlimit="10"/>
<path d="M50.2555 86.4781V84.225H46.668V85.5657H47.6219V92.507H46.668V93.9635H51.1565V92.507H50.2555V88.7873C50.2555 88.4402 52.3631 85.7696 52.3631 86.078V89.7733H54.8494V85.6149C54.8494 84.6639 54.2248 84.05 53.0884 84.05C51.7492 84.0498 50.8372 85.7447 50.2555 86.4781Z" fill="#6A6A6A"/>
<path d="M6.07534 89.2297V87.9312H4.678V92.5109H7.09929V93.9638H0V92.5109H1.88834V82.2251H0.405068V80.4563H55.7011V82.2251H4.678V86.3554H6.07534V85.1343H7.6833V89.2297H6.07534Z" fill="#6A6A6A"/>
<path d="M59.7522 80.3931H57.1152V82.1338H59.7522V80.3931Z" fill="#6A6A6A"/>
</svg>
