<svg width="272" height="155" viewBox="0 0 272 155" fill="none" xmlns="http://www.w3.org/2000/svg">
<path d="M47.478 142.087C47.478 133.043 52.1737 129.217 60.6085 129.217C65.652 129.217 68.7389 130.696 70.6955 132.739L66.9128 136.565C65.652 135.348 63.9998 134.261 60.565 134.261C55.1302 134.261 52.9998 136.956 52.9998 142.13C52.9998 147.565 54.478 150.261 60.5215 150.261C65.3911 150.261 66.7824 148.652 66.7824 145.13V144.609H59.8259V140.043H72.2172V144.13C72.2172 151.217 69.3911 154.956 60.2172 154.956C50.2606 154.956 47.478 150.391 47.478 142.087Z" fill="#6A6A6A"/>
<path d="M74.3911 145.043C74.3911 138.652 77.1737 135.087 84.3476 135.087C91.5215 135.087 94.3042 138.609 94.3042 145.043C94.3042 151.478 91.5215 155 84.3476 155C77.2172 154.957 74.3911 151.435 74.3911 145.043ZM89.0433 145.174C89.0433 141.957 88.0433 139.913 84.3911 139.913C80.6955 139.913 79.7389 141.957 79.7389 145.174C79.7389 148.391 80.6955 150.478 84.3911 150.478C87.9998 150.478 89.0433 148.391 89.0433 145.174Z" fill="#6A6A6A"/>
<path d="M103.782 129.652H121.956V134.608H109.304V140H121.608V144.913H109.304V154.608H103.782V129.652Z" fill="#6A6A6A"/>
<path d="M124.652 145.695V135.522H129.957V145.782C129.957 148.435 130 150.304 133.783 150.304C137.522 150.304 137.609 148.435 137.609 145.739V135.478H142.783V145.695C142.783 152.217 141.044 154.913 133.739 154.913C126.478 154.913 124.652 152.261 124.652 145.695Z" fill="#6A6A6A"/>
<path d="M145.174 135.826L149.304 135.521L149.826 137.608C150.652 136.391 152.957 135.434 155.913 135.304V140.347C151.435 140.391 150.478 142.13 150.478 145.13V154.565H145.174V135.826Z" fill="#6A6A6A"/>
<path d="M157.218 135.521H160.609L161.522 130.869L165.653 130.043V135.521H170.174V140.043H165.653V147.913C165.653 149.391 165.87 150.217 168.131 150.217H170.174V154.608C169.392 154.695 168 154.695 167.044 154.695C161.87 154.695 160.392 152.956 160.392 148.695V140.043H157.261V135.521H157.218Z" fill="#6A6A6A"/>
<path d="M172.522 128.478H177.783V136.826C178.565 136 180.392 135.087 184 135.087C189.739 135.087 190.826 138.304 190.826 143.043V154.609H185.565V144.087C185.565 141.739 185.305 140.087 182.087 140.087C178.435 140.087 177.826 141.782 177.826 144.348V154.609H172.522V128.478Z" fill="#6A6A6A"/>
<path d="M193.087 145.043C193.087 139.739 194.826 135.087 203 135.087C211.391 135.087 211.652 140.696 211.478 147.044H198.217C198.522 149.348 199.652 150.696 203.043 150.696C205.957 150.696 207.609 150 209.043 148.957L211.696 152.391C209.217 154.261 206.826 155 203.043 155C194.783 154.957 193.087 150.478 193.087 145.043ZM198.217 143.304H206.652C206.522 141.13 206.087 139.522 202.826 139.522C199.565 139.522 198.478 140.957 198.217 143.304Z" fill="#6A6A6A"/>
<path d="M214 135.826L218.13 135.521L218.652 137.608C219.478 136.391 221.782 135.434 224.739 135.304V140.347C220.26 140.391 219.304 142.13 219.304 145.13V154.565H214V135.826V135.826Z" fill="#6A6A6A"/>
<path d="M135.565 0C60.3045 0 0 22.5652 0 50.8261C0 78.9131 60.8262 101.652 135.565 101.652C210.305 101.652 271.131 78.8262 271.131 50.8261C271.131 22.8261 210.305 0 135.565 0Z" fill="#6A6A6A"/>
<path d="M215.218 36.2605C215.392 35.9562 215.218 35.7388 214.827 35.7388C212.783 35.7388 210.087 35.7388 208 35.7388C207.479 35.7388 207.218 35.7822 207 36.2605C206.218 37.7823 196.653 52.1301 194.87 54.9127C194.566 55.3475 194.218 55.2605 194.174 54.7823C194 53.1301 192.566 51.2171 190.305 50.304C188.609 49.6084 186.913 49.4779 185.174 49.6953C182.044 50.1301 179.218 51.7823 176.74 53.6518C173 56.4779 169.827 60.1301 165.653 62.8693C163.392 64.3475 160.305 65.6084 158.218 63.6953C156.348 61.9562 156.566 58.0866 159.435 55.0866C159.74 54.7823 160.087 55.0432 160.044 55.304C159.783 56.6519 160.131 57.9997 161.131 58.9127C162.392 60.0432 164.174 60.1736 165.696 59.4345C167.522 58.5214 168.566 56.8258 168.87 54.8258C169.348 51.7823 167 49.0866 164.087 48.8692C161.696 48.6953 159.435 49.5214 157.174 51.391C156.044 52.304 155.435 52.9997 154.435 54.391C154.218 54.7388 153.826 54.7823 153.87 54.2605C154 50.3475 152.348 48.1736 149.131 48.0866C146.653 48.0431 143.957 49.391 141.87 51.0431C139.566 52.8692 137.609 55.304 135.435 57.6084C135.174 57.8692 134.957 57.8692 134.87 57.3475C134.783 54.7823 134.174 52.2605 132.957 50.4779C132.522 49.8692 131.653 49.5649 130.913 49.9562C130.566 50.1301 129.348 50.6953 128.479 51.391C128.044 51.7388 127.87 52.2605 128.044 52.9127C129.218 56.7823 128.957 61.1736 127.392 64.8693C125.957 68.2606 123.174 71.3475 119.87 72.3475C117.696 73.0432 115.435 72.6954 114.044 70.7823C112.131 68.1301 112.913 63.5214 115.739 59.6953C118.261 56.3475 121.913 54.1736 125.522 52.8258C125.957 52.6518 126.044 52.391 125.913 52.0431C125.739 51.4345 125.392 50.6518 125.261 50.2605C124.913 49.391 124 49.2171 122.87 49.3475C120.218 49.6518 117.87 50.5649 115.522 51.8258C109.392 55.1301 106.305 61.478 104.913 64.9127C104.261 66.5649 103.696 67.5649 103 68.478C102.044 69.6954 100.826 70.8258 98.5655 72.7388C98.3482 72.9128 98.2177 73.304 98.3916 73.6519C98.609 74.1301 99.7829 75.7388 100.087 75.9128C100.435 76.0867 100.87 75.8258 101.044 75.7388C102.609 74.6954 104.479 72.9997 105.392 71.8693C105.696 71.478 106.044 71.6519 106.218 72.2171C107.087 75.2606 109.305 77.7388 112.392 78.7823C118.044 80.6954 123.913 77.9128 128.305 73.1301C131.131 70.0867 132.131 68.1301 133.218 66.7823C135.044 64.5214 138.653 59.4779 142.913 56.2171C144.479 54.9997 146.348 54.0866 147.261 54.6953C148 55.1736 148.261 56.304 147.044 58.5214C142.696 66.478 136.261 75.8693 135.087 78.1302C134.87 78.5215 135.044 78.8258 135.479 78.8258C137.783 78.8258 140.044 78.8258 142.087 78.8258C142.435 78.8258 142.609 78.6519 142.783 78.391C146.131 73.1301 149.305 68.1301 152.653 62.9997C152.826 62.6953 153 62.9127 153 63.0432C153.087 64.2606 153.348 65.8693 154.087 66.9562C155.348 68.9562 157.174 69.7823 159.174 69.8258C160.783 69.8258 161.566 69.6084 163.305 68.9562C164.696 68.4345 165.826 67.7388 166.696 67.1301C167.218 66.7823 167.305 67.3475 167.261 67.4345C166.479 71.6084 167.435 76.5215 171.566 78.6084C176.522 81.0432 181.957 77.6084 185.087 74.5214C185.392 74.2171 185.74 74.2606 185.74 74.9128C185.827 76.0867 186.348 77.5215 187.305 78.478C189.913 81.1302 195.218 80.0867 200.522 75.9562C203.914 73.3041 207.522 69.6084 210.74 65.6519C210.87 65.5214 210.957 65.2606 210.74 64.9997C210.261 64.4779 209.522 63.9127 209.044 63.4345C208.827 63.2606 208.522 63.304 208.305 63.4345C205 66.5649 202 70.1736 197.74 73.1301C196.305 74.1301 193.957 74.9562 192.957 73.5649C192.566 73.0432 192.609 72.2606 193 71.2606C194.305 68.2606 214.174 38.0431 215.218 36.2605ZM188.957 61.6084C189 61.8258 189.305 62.0432 189.609 62.1736C189.696 62.2171 189.783 62.304 189.653 62.5214C188.827 64.3475 188.044 65.391 186.957 66.9562C186 68.391 184.87 69.5214 183.566 70.6519C181.566 72.3041 178.783 74.0867 176.479 72.9128C175.479 72.391 175 70.9562 175.044 69.7823C175.087 66.5214 176.522 63.1736 179.218 59.9127C182.479 55.9127 186.087 53.8258 188.435 54.9562C190.87 56.1301 190.087 58.9562 189 61.1736C188.913 61.304 188.913 61.4779 188.957 61.6084Z" fill="white"/>
<path d="M71.1739 78.826C63.7826 78.8695 57.2608 74.3043 56.4782 66.3912C56.0434 61.9999 57.3043 58.0869 59.7826 54.8695C61.9999 51.9999 65.6956 49.6086 68.8695 49.0434C69.913 48.8695 71.2608 48.9564 71.8261 49.6521C72.7391 50.6956 72.4782 51.826 71.5652 52.3043C69.1739 53.5216 66.2608 55.6521 64.826 58.5216C63.6521 60.8695 63.4347 63.6956 65.2173 66.3912C68.1739 70.8695 76.4782 70.9999 84.1739 63.826C86.0869 62.0869 87.7826 60.3912 89.5217 58.3912C92.913 54.5216 94.0435 53.0869 98.5652 46.826C98.6087 46.739 98.6522 46.6521 98.6087 46.6086C98.5652 46.5216 98.5217 46.5216 98.3913 46.5216C95.3913 46.6086 92.7391 47.4782 90.2174 49.3912C89.4782 49.9129 88.4348 49.8695 87.9565 49.1303C87.4348 48.3477 87.8261 47.3042 88.6522 46.6955C92.7391 43.826 97.2609 43.3042 101.826 42.5651C101.826 42.5651 102.13 42.5651 102.391 42.2173C104.261 39.826 105.696 37.6086 107.696 35.1738C109.696 32.6955 112.304 30.4347 114.304 28.6955C117.087 26.3042 118.87 25.4781 120.696 24.5216C121.174 24.2607 120.652 23.9564 120.478 23.9564C110.348 22.0433 99.8261 19.6086 89.7826 23.3042C82.8261 25.9129 79.7826 31.4347 81.2174 35.1303C82.2608 37.739 85.6956 38.1738 88.913 36.6086C91.5652 35.3042 94.0435 33.1738 95.8261 30.4781C96.8261 28.9564 98.8696 30.0434 97.7826 32.6955C94.8261 39.6086 89.2174 45.0869 82.3913 45.3042C76.5652 45.4782 72.826 41.2173 72.826 35.9129C72.8695 25.4781 84.4782 18.6086 96.6522 17.6086C111.348 16.3912 125.261 20.3042 139.87 22.0868C151.044 23.4347 161.783 23.4781 173 20.8694C174.348 20.5651 175.261 21.4347 175.174 22.7825C175.044 24.739 173.565 26.6086 169.87 28.6086C165.652 30.9129 161.261 31.6086 156.652 31.6521C145.522 31.739 135.174 27.3912 124.435 25.0868C124.435 25.5651 124.565 26.1303 124.174 26.3912C118.261 30.7825 112.87 35.2173 109.261 41.4782C109.13 41.6086 109.217 41.739 109.435 41.739C112.565 41.5651 115.348 41.4782 118.261 41.2608C118.783 41.2173 118.783 41.0868 118.739 40.739C118.478 38.6086 119.087 36.1303 121 34.4347C122.957 32.6955 125.348 32.4781 126.957 33.739C128.783 35.1738 128.609 37.739 127.609 39.6521C126.609 41.6086 124.913 42.6521 123.304 43.1303C123.304 43.1303 122.957 43.2173 123 43.5216C123.087 43.9999 125.261 45.2173 125.435 45.5651C125.609 45.8695 125.522 46.3477 125.174 46.6955C124.957 46.9564 124.565 47.2173 124.13 47.2173C123.739 47.2173 123.522 47.0869 123.044 46.826C122.044 46.3042 120.826 45.3912 120 44.3912C119.696 44.0434 119.565 44.0434 118.87 44.0868C115.696 44.2608 110.783 44.739 107.478 45.1738C106.652 45.2608 106.565 45.4347 106.391 45.6955C101.087 54.4347 95.3913 63.913 89.1739 70.2173C82.6087 76.9999 77.0869 78.7825 71.1739 78.826ZM121.783 39.9129C121.87 40.3477 122.044 40.4347 122.261 40.3912C123.261 40.1738 124.391 39.3477 125.044 38.3912C125.652 37.5216 125.913 36.2608 125.348 35.739C124.826 35.3042 123.957 35.3912 123.304 35.9564C122 37.1303 121.609 38.6955 121.783 39.9129Z" fill="white"/>
<path d="M135.566 97.2613C63.8264 97.2613 5.65234 76.4786 5.65234 50.8699C5.65234 25.2612 63.8264 4.47852 135.566 4.47852C207.305 4.47852 265.479 25.2612 265.479 50.8699C265.479 76.4786 207.305 97.2613 135.566 97.2613ZM135.566 8.30461C66.3481 8.30461 10.2176 27.4351 10.2176 50.8264C10.2176 74.2177 66.3481 93.3482 135.566 93.3482C204.783 93.3482 260.914 74.2177 260.914 50.8264C260.914 27.4351 204.783 8.30461 135.566 8.30461Z" fill="white"/>
</svg>
