<svg width="175" height="175" viewBox="0 0 175 175" fill="none" xmlns="http://www.w3.org/2000/svg">
<path d="M173.086 87.5C173.086 134.805 134.805 173.086 87.5 173.086C40.1953 173.086 1.91406 134.805 1.91406 87.5C1.91406 40.1953 40.1953 1.91406 87.5 1.91406C134.805 1.91406 173.086 40.1953 173.086 87.5ZM87.5 7.10937C42.9297 7.10937 7.10937 42.9297 7.10937 87.5C7.10937 132.07 43.2031 167.891 87.5 167.891C132.07 167.891 167.891 131.797 167.891 87.5C167.891 42.9297 132.07 7.10937 87.5 7.10937Z" fill="url(#paint0_linear)"/>
<path d="M87.5 7.10938C42.9297 7.10938 7.10938 42.9297 7.10938 87.5C7.10938 132.07 43.2031 167.891 87.5 167.891C132.07 167.891 167.891 131.797 167.891 87.5C167.891 42.9297 132.07 7.10938 87.5 7.10938ZM87.5 162.695C45.9375 162.695 12.3047 129.062 12.3047 87.5C12.3047 45.9375 45.9375 12.3047 87.5 12.3047C129.062 12.3047 162.695 45.9375 162.695 87.5C162.695 129.062 129.062 162.695 87.5 162.695Z" fill="url(#paint1_linear)"/>
<path opacity="0.4" d="M87.5 173.086C134.805 173.086 173.086 134.805 173.086 87.5C173.086 40.1953 134.805 1.91406 87.5 1.91406C40.1953 1.91406 1.91406 40.1953 1.91406 87.5C1.91406 134.805 40.1953 173.086 87.5 173.086ZM87.5 0C135.625 0 175 39.375 175 87.5C175 135.625 135.625 175 87.5 175C39.375 175 0 135.625 0 87.5C0 39.375 39.375 0 87.5 0Z" fill="url(#paint2_linear)"/>
<path d="M6.01562 87.7734C6.01562 42.9297 42.3828 6.01562 87.5 6.01562C132.617 6.01562 168.984 42.6562 168.984 87.7734C168.984 132.617 132.617 168.984 87.5 168.984C42.3828 168.984 6.01562 132.617 6.01562 87.7734ZM31.4453 31.4453C16.9531 45.9375 7.92969 65.8984 7.92969 87.7734C7.92969 109.648 16.9531 129.609 31.1719 143.828C45.6641 158.047 65.625 167.07 87.5 167.07C109.375 167.07 129.336 158.32 143.555 143.828C158.047 129.609 166.797 109.648 166.797 87.7734C166.797 65.8984 157.773 45.9375 143.555 31.4453C129.336 16.9531 109.375 7.92969 87.5 7.92969C65.625 7.92969 45.6641 16.9531 31.4453 31.4453Z" fill="#6A6A6A"/>
<path opacity="0.4" d="M87.5 162.969C67.2656 162.969 48.3984 155.039 34.1797 140.82C19.9609 126.602 12.0312 107.734 12.0312 87.5C12.0312 67.2656 19.9609 48.3984 34.1797 34.1797C48.3984 19.9609 67.2656 12.0312 87.5 12.0312C107.734 12.0312 126.602 19.9609 140.82 34.1797C155.039 48.3984 162.969 67.2656 162.969 87.5C162.969 107.734 155.039 126.602 140.82 140.82C126.602 155.039 107.734 162.969 87.5 162.969ZM87.5 160.781C106.914 160.781 125.508 153.125 139.18 139.453C153.125 125.508 160.508 107.188 160.508 87.7734C160.508 68.3594 152.852 49.7656 139.18 36.0938C125.234 22.1484 106.914 14.7656 87.5 14.7656C68.0859 14.7656 49.4922 22.4219 35.8203 36.0938C21.875 49.4922 14.2187 68.0859 14.2187 87.5C14.2187 106.914 21.875 125.508 35.5469 139.18C49.4922 153.125 68.0859 160.781 87.5 160.781V160.781Z" fill="url(#paint3_linear)"/>
<path d="M153.945 123.047C152.578 121.953 99.8048 80.1172 99.8048 80.1172L87.5001 9.84375C86.6797 10.1172 85.586 10.9375 85.0391 12.0313L76.2891 80.3906L21.875 122.227C21.875 122.227 20.7813 123.594 20.2344 124.414C19.9609 124.961 19.9609 125.781 19.9609 126.602L87.2266 98.9844L154.492 126.602C155.039 125.234 154.492 123.867 153.945 123.047Z" fill="#6A6A6A"/>
<path d="M88.0469 89.6875L87.5 102.266L149.297 127.148C151.484 128.242 153.125 127.695 154.766 126.601L88.8672 89.414C88.5937 89.1406 88.0469 89.414 88.0469 89.6875Z" fill="#6A6A6A"/>
<path d="M88.0469 89.6875C88.0469 89.6875 91.6016 95.9765 95.7031 100.352C101.445 106.641 109.102 111.016 109.102 111.016L149.297 127.148C151.484 128.242 153.125 127.695 154.766 126.601L88.8672 89.414C88.5937 89.1406 88.0469 89.414 88.0469 89.6875V89.6875Z" fill="url(#paint4_linear)"/>
<path d="M154.492 124.141C154.492 123.867 154.219 123.594 153.945 123.047L97.6172 81.7578L89.9609 86.6797C89.9609 86.6797 90.5078 86.9531 90.7812 86.6797C91.6016 86.4062 93.2422 86.1328 94.8828 86.6797C96.25 87.2266 154.492 124.414 154.492 124.141C154.492 124.414 154.492 124.414 154.492 124.141Z" fill="#6A6A6A"/>
<path d="M152.578 121.68L100.078 80.1172L97.6172 81.7578L153.945 123.32C153.672 122.773 153.125 122.227 152.578 121.68Z" fill="#333E46"/>
<path d="M88.8672 85.5859L88.5937 85.8594C88.5937 85.8594 88.5937 86.4062 89.1406 86.1328C89.4141 85.8594 97.3437 81.7578 100.078 80.1172L90.5078 14.4922C90.2344 12.0313 89.1406 10.9375 87.2266 10.1172L88.3203 86.1328L88.8672 85.5859Z" fill="#6A6A6A"/>
<path d="M84.2188 14.4922V18.0469L78.2031 78.4766C78.2031 79.2969 78.4766 80.1172 79.2969 80.6641L82.8516 83.3984L85.3125 16.6797L85.5859 11.4844C84.7656 12.0313 84.4922 13.125 84.2188 14.4922ZM80.9375 84.4922L77.6562 81.7578L22.1484 121.953C22.1484 121.953 20.5078 123.047 20.2344 124.141L22.1484 123.047L80.3906 86.4063C81.4844 85.8594 81.7578 85.3125 80.9375 84.4922Z" fill="#6A6A6A"/>
<path d="M86.6797 89.6875C86.6797 89.414 86.4063 89.1406 86.1329 89.414L19.9609 126.875C21.6016 127.969 23.2422 128.242 25.4297 127.422L87.2266 102.539L86.6797 89.6875Z" fill="#6A6A6A"/>
<path d="M88.5938 85.8594L88.8672 85.5859L88.5938 85.8594C88.5938 85.8594 88.5937 86.1328 88.8672 86.1328H89.1406C89.414 85.8594 97.3436 81.7578 100.078 80.1172L98.9843 72.1875L90.5078 14.4922C90.5078 13.3984 90.2344 12.5781 89.6875 12.0312C89.6875 12.0312 93.789 67.2656 93.789 73.2812C93.789 81.2109 88.5938 85.8594 88.5938 85.8594Z" fill="#6A6A6A"/>
<path d="M86.6797 89.6875C86.6797 89.414 86.4063 89.1406 86.1329 89.414L19.9609 126.875C21.6016 127.969 23.2422 128.242 25.4297 127.422L87.2266 102.539L86.6797 89.6875V89.6875Z" fill="url(#paint5_linear)" fill-opacity="0.8"/>
<path opacity="0.8" d="M25.4297 127.148L87.2266 102.266L86.6797 90.2344C85.5859 93.5156 83.6719 97.0703 78.4766 99.8047C74.6484 101.992 38.0078 120.039 24.8828 126.328C24.0625 126.875 22.9688 127.148 22.4219 127.422C23.5156 127.969 24.3359 127.695 25.4297 127.148Z" fill="url(#paint6_linear)"/>
<path d="M88.8672 85.5859L88.5937 85.8594C88.5937 85.8594 88.5937 86.4062 89.1406 86.1328C89.4141 85.8594 97.3437 81.7578 100.078 80.1172L90.5078 14.4922C90.2344 12.0313 89.1406 10.9375 87.2266 10.1172L88.3203 86.1328L88.8672 85.5859V85.5859Z" fill="url(#paint7_linear)"/>
<path d="M88.8672 85.5859L88.5937 85.8594C88.5937 85.8594 88.5937 86.4062 89.1406 86.1328C89.4141 85.8594 97.3437 81.7578 100.078 80.1172L90.5078 14.4922C90.2344 12.0313 89.1406 10.9375 87.2266 10.1172L88.3203 86.1328L88.8672 85.5859V85.5859Z" fill="url(#paint8_linear)"/>
<path d="M13.9453 121.406C12.0313 117.031 1.09375 95.7031 13.125 54.6875H8.47656C6.01562 62.8906 4.10156 67.8125 3.00781 75.1953C3.00781 75.1953 2.46094 77.9297 2.1875 80.9375C1.91406 83.9453 1.91406 85.5859 1.91406 87.5C1.91406 103.906 6.01562 113.477 6.01562 113.477C10.3906 127.148 18.0469 139.453 28.4375 148.75C37.4609 156.68 51.4062 162.695 62.8906 164.883C60.9766 164.609 28.1641 150.664 13.9453 121.406V121.406Z" fill="url(#paint9_linear)"/>
<path d="M88.5938 89.1406H86.1328C86.4063 89.1406 86.6797 89.1406 86.6797 89.414L87.2266 101.992H87.5L88.0469 89.414C88.0469 89.1406 88.3204 88.8672 88.5938 89.1406V89.1406Z" fill="url(#paint10_linear)"/>
<path d="M114.844 6.28906C143.555 17.2266 170.625 47.3047 170.625 85.3125C170.625 131.25 133.984 168.711 87.5 168.711V173.086C133.984 173.086 173.086 134.805 173.086 87.5C173.086 49.7656 149.023 18.0469 114.844 6.28906V6.28906Z" fill="url(#paint11_linear)"/>
<path d="M160.781 55.2344C141.641 11.2109 98.4375 8.75 95.9766 8.47656H95.7031C128.789 14.4922 149.844 36.0937 157.227 58.7891V59.0625C160.508 67.8125 162.148 77.1094 162.422 87.2266C162.695 96.7969 160.508 107.461 156.406 117.305C156.133 118.672 155.859 120.313 155.586 120.313H159.961C173.086 95.7031 167.344 70.8203 160.781 55.2344V55.2344Z" fill="url(#paint12_linear)"/>
<path d="M6.01562 87.7734C6.01562 42.9297 42.3828 6.01562 87.5 6.01562C132.617 6.01562 168.984 42.6562 168.984 87.7734C168.984 132.617 132.617 168.984 87.5 168.984C42.3828 168.984 6.01562 132.617 6.01562 87.7734ZM31.4453 31.4453C16.9531 45.9375 7.92969 65.8984 7.92969 87.7734C7.92969 109.648 16.9531 129.609 31.1719 143.828C45.6641 158.047 65.625 167.07 87.5 167.07C109.375 167.07 129.336 158.32 143.555 143.828C158.047 129.609 166.797 109.648 166.797 87.7734C166.797 65.8984 157.773 45.9375 143.555 31.4453C129.336 16.9531 109.375 7.92969 87.5 7.92969C65.625 7.92969 45.6641 16.9531 31.4453 31.4453Z" fill="#6A6A6A"/>
<path d="M21.6016 122.5L77.3828 82.3047C80.3906 83.9453 85.3125 86.1328 85.8594 86.1328C86.4062 86.4062 86.4062 85.8594 86.4062 85.8594L79.5703 80.1172C78.75 79.5703 78.4766 78.75 78.4766 77.9297L85.0391 12.0312C84.7656 12.3047 84.7656 12.8516 84.4922 13.125C84.2188 13.6719 84.2188 13.9453 84.2188 14.4922L74.6484 80.3906L22.1484 121.68C21.875 121.953 21.6016 122.227 21.6016 122.5Z" fill="#333F47"/>
<defs>
<linearGradient id="paint0_linear" x1="21.8695" y1="32.5336" x2="153.13" y2="142.466" gradientUnits="userSpaceOnUse">
<stop stop-color="#6A6A6A"/>
<stop offset="0.1" stop-color="#CDD0D0"/>
<stop offset="0.2" stop-color="#A5ACAF"/>
<stop offset="0.3" stop-color="#98A0A4"/>
<stop offset="0.4" stop-color="#828A8F"/>
<stop offset="0.5" stop-color="#667075"/>
<stop offset="0.6" stop-color="#535C63"/>
<stop offset="0.7" stop-color="#475158"/>
<stop offset="0.8" stop-color="#434D54"/>
<stop offset="1" stop-color="#475157"/>
</linearGradient>
<linearGradient id="paint1_linear" x1="25.8973" y1="35.7082" x2="148.944" y2="139.068" gradientUnits="userSpaceOnUse">
<stop stop-color="#0B1F2A"/>
<stop offset="0.2" stop-color="#333F47"/>
<stop offset="0.5" stop-color="#81898D"/>
<stop offset="0.7" stop-color="#B3B8B8"/>
<stop offset="0.8" stop-color="#DEE0DD"/>
<stop offset="1" stop-color="#FBFBFB"/>
</linearGradient>
<linearGradient id="paint2_linear" x1="117.406" y1="169.704" x2="57.5231" y2="5.09688" gradientUnits="userSpaceOnUse">
<stop stop-color="#E1E3E1"/>
<stop offset="0.1" stop-color="#C1C5C4"/>
<stop offset="0.3" stop-color="#9BA1A2"/>
<stop offset="0.5" stop-color="#7D8487"/>
<stop offset="0.7" stop-color="#687074" stop-opacity="0"/>
<stop offset="0.8" stop-color="#5B6469" stop-opacity="0"/>
<stop offset="1" stop-color="#576065" stop-opacity="0"/>
</linearGradient>
<linearGradient id="paint3_linear" x1="49.7684" y1="22.1512" x2="125.232" y2="152.849" gradientUnits="userSpaceOnUse">
<stop stop-color="#6A6A6A"/>
<stop offset="0.1" stop-color="#C1C5C4"/>
<stop offset="0.3" stop-color="#9BA1A2"/>
<stop offset="0.5" stop-color="#7D8487"/>
<stop offset="0.7" stop-color="#687074" stop-opacity="0"/>
<stop offset="0.8" stop-color="#5B6469" stop-opacity="0"/>
<stop offset="1" stop-color="#576065" stop-opacity="0"/>
</linearGradient>
<linearGradient id="paint4_linear" x1="121.647" y1="107.715" x2="116.998" y2="115.371" gradientUnits="userSpaceOnUse">
<stop stop-color="#27343C"/>
<stop offset="1" stop-color="#00111E" stop-opacity="0"/>
</linearGradient>
<linearGradient id="paint5_linear" x1="87.4508" y1="99.3562" x2="75.9665" y2="102.637" gradientUnits="userSpaceOnUse">
<stop offset="0.2" stop-color="#02131F"/>
<stop offset="0.9" stop-color="#02131F" stop-opacity="0"/>
</linearGradient>
<linearGradient id="paint6_linear" x1="56.8504" y1="114.581" x2="55.2098" y2="110.48" gradientUnits="userSpaceOnUse">
<stop stop-color="#6A6A6A"/>
<stop offset="0.1" stop-color="#02131F"/>
<stop offset="1" stop-color="#02131F" stop-opacity="0"/>
</linearGradient>
<linearGradient id="paint7_linear" x1="97.3492" y1="47.0695" x2="88.0523" y2="48.1633" gradientUnits="userSpaceOnUse">
<stop offset="0.3" stop-color="#02131F"/>
<stop offset="0.8" stop-color="#02131F" stop-opacity="0"/>
</linearGradient>
<linearGradient id="paint8_linear" x1="97.639" y1="46.9137" x2="91.3472" y2="47.734" gradientUnits="userSpaceOnUse">
<stop offset="0.4" stop-color="#27343C"/>
<stop offset="1" stop-color="#3B474E" stop-opacity="0"/>
</linearGradient>
<linearGradient id="paint9_linear" x1="-0.984376" y1="89.7723" x2="75.3047" y2="133.796" gradientUnits="userSpaceOnUse">
<stop stop-color="#25323B" stop-opacity="0"/>
<stop offset="0.1" stop-color="#27343C"/>
</linearGradient>
<linearGradient id="paint10_linear" x1="87.3633" y1="102.266" x2="87.3633" y2="89.1406" gradientUnits="userSpaceOnUse">
<stop stop-color="#6A6A6A"/>
</linearGradient>
<linearGradient id="paint11_linear" x1="130.293" y1="6.28906" x2="130.293" y2="173.086" gradientUnits="userSpaceOnUse">
<stop stop-color="#6B7378"/>
<stop offset="0.2" stop-color="#333F47"/>
<stop offset="0.5" stop-color="#27343C"/>
<stop offset="0.8" stop-color="#333F47"/>
<stop offset="1" stop-color="#434D54"/>
</linearGradient>
<linearGradient id="paint12_linear" x1="156.65" y1="22.1293" x2="119.736" y2="76.2699" gradientUnits="userSpaceOnUse">
<stop offset="0.7" stop-color="#49545B"/>
<stop offset="0.8" stop-color="white" stop-opacity="0"/>
</linearGradient>
</defs>
</svg>
