<svg id="Capa_1" enable-background="new 0 0 512 512" height="512" viewBox="0 0 512 512" width="512" xmlns="http://www.w3.org/2000/svg"><g><g><path d="m256 66.463c-104.52 0-189.55 85.03-189.55 189.55h379.1c0-104.52-85.03-189.55-189.55-189.55z" fill="#62dbfb"/><path d="m276 67.518c-6.574-.693-13.245-1.055-20-1.055-104.52 0-189.55 85.03-189.55 189.55h40c0-97.765 74.397-178.471 169.55-188.495z" fill="#01d0fb"/><path d="m7.57 249.863c-.08 3.37 2.64 6.15 6.01 6.15h52.87c0-70.03 38.17-131.3 94.79-164.12l-29.51-51.12c-72.61 42.01-121.99 119.7-124.16 209.09z" fill="#f07281"/><path d="m380.27 40.773-29.51 51.12c56.62 32.82 94.79 94.09 94.79 164.12h52.87c3.37 0 6.09-2.78 6.01-6.15-2.17-89.39-51.55-167.08-124.16-209.09z" fill="#6ed5a1"/><path d="m262.346 403.721 11.46 23.221c1.022 2.07 2.997 3.505 5.281 3.837l25.625 3.724c5.753.836 8.05 7.906 3.887 11.964l-18.543 18.075c-1.653 1.611-2.408 3.933-2.017 6.209l4.377 25.522c.983 5.73-5.031 10.1-10.177 7.394l-22.92-12.05c-2.043-1.074-4.485-1.074-6.528 0l-22.92 12.05c-5.146 2.705-11.16-1.664-10.177-7.394l4.377-25.522c.39-2.275-.364-4.597-2.017-6.209l-18.543-18.075c-4.163-4.058-1.866-11.128 3.887-11.964l25.625-3.724c2.285-.332 4.26-1.767 5.281-3.837l11.46-23.221c2.575-5.213 10.009-5.213 12.582 0z" fill="#ffe177"/><path d="m387.042 324.446 25.841 1.663c2.304.148 4.533-.847 5.961-2.66l16.019-20.345c3.597-4.568 10.869-3.028 12.307 2.605l6.404 25.09c.571 2.237 2.206 4.05 4.372 4.847l24.299 8.949c5.455 2.009 6.239 9.402 1.326 12.51l-21.883 13.844c-1.951 1.234-3.17 3.349-3.259 5.656l-1.002 25.875c-.225 5.809-7.014 8.839-11.488 5.127l-19.929-16.534c-1.777-1.474-4.165-1.98-6.387-1.352l-24.918 7.043c-5.594 1.581-10.574-3.939-8.426-9.341l9.567-24.063c.853-2.145.596-4.573-.688-6.492l-14.399-21.522c-3.23-4.832.482-11.273 6.283-10.9z" fill="#ffe177"/><path d="m131.214 335.283-14.361 21.548c-1.28 1.921-1.533 4.349-.677 6.493l9.609 24.046c2.157 5.399-2.812 10.927-8.409 9.356l-24.931-6.999c-2.223-.624-4.61-.114-6.384 1.363l-19.899 16.569c-4.468 3.72-11.262.702-11.497-5.107l-1.047-25.873c-.093-2.307-1.316-4.42-3.269-5.651l-21.908-13.805c-4.919-3.099-4.148-10.493 1.304-12.512l24.283-8.992c2.165-.802 3.797-2.617 4.364-4.855l6.36-25.101c1.428-5.636 8.698-7.188 12.303-2.626l16.055 20.316c1.431 1.811 3.662 2.802 5.966 2.65l25.838-1.708c5.802-.385 9.524 6.05 6.3 10.888z" fill="#ffe177"/><path d="m358.691 199.865 12.553-46.848c1.992-7.436-4.812-14.24-12.247-12.247l-46.848 12.553c-2.284.612-4.714.399-6.848-.62-42.968-20.505-96.078-12.684-131.303 23.474-43.789 44.95-42.907 117.663 1.91 161.588 44.757 43.867 116.601 43.591 161.018-.826 35.218-35.218 42.679-87.676 22.394-130.206-1.021-2.141-1.243-4.577-.629-6.868z" fill="#6ed5a1"/><path d="m334.89 256.01c0 41.09-31.41 74.85-71.54 78.55-2.42.24-4.87.35-7.35.35-43.57 0-78.89-35.33-78.89-78.9s35.32-78.89 78.89-78.89c2.48 0 4.93.11 7.35.35 40.13 3.7 71.54 37.45 71.54 78.54z" fill="#ffe177"/><path d="m214 176.18c-43.79 44.95-42.91 117.66 1.91 161.59 17.09 16.75 38.14 27.06 60.09 30.94-35.18 6.21-72.7-4.1-100.09-30.94-44.82-43.93-45.7-116.64-1.91-161.59 27.53-28.27 66-39.22 102-32.85-22.79 4.01-44.58 14.97-62 32.85z" fill="#46cc8d"/><path d="m380.27 40.773-29.51 51.12c-27.89-16.17-60.27-25.43-94.76-25.43s-66.87 9.26-94.76 25.43l-22.78-39.46-6.73-11.66c36.55-21.15 79-33.26 124.27-33.26 4.18 0 8.34.1 12.47.31h.03c40.58 2.01 78.6 13.76 111.77 32.95z" fill="#ffe177"/><path d="m47.57 249.863c1.869-77.007 38.778-145.329 95.389-189.639l-11.229-19.451c-72.61 42.01-121.99 119.7-124.16 209.09-.08 3.37 2.64 6.15 6.01 6.15h40c-3.37 0-6.09-2.78-6.01-6.15z" fill="#eb5569"/><g fill="#ffd15b"><path d="m242.301 454.986c0-19.08 8.424-36.183 21.742-47.827l-1.697-3.438c-2.573-5.213-10.007-5.213-12.58 0l-11.46 23.221c-1.022 2.07-2.997 3.505-5.281 3.837l-25.625 3.724c-5.753.836-8.05 7.906-3.887 11.964l18.543 18.075c1.653 1.611 2.408 3.933 2.017 6.208l-4.377 25.522c-.983 5.73 5.031 10.1 10.177 7.394l22.92-12.05c.285-.15.579-.274.878-.382-7.161-10.281-11.37-22.77-11.37-36.248z"/><path d="m417.896 363.948c0-22.91 12.132-42.982 30.318-54.156l-1.042-4.084c-1.438-5.633-8.711-7.172-12.307-2.605l-16.019 20.345c-1.428 1.814-3.657 2.809-5.961 2.66l-25.841-1.663c-5.802-.373-9.513 6.068-6.28 10.9l14.399 21.522c1.284 1.919 1.541 4.346.688 6.492l-9.567 24.063c-2.148 5.402 2.831 10.922 8.426 9.341l24.918-7.043c1.237-.35 2.523-.336 3.73-.011-3.502-7.875-5.462-16.587-5.462-25.761z"/><path d="m80.794 380.823c-16.156-22.516-15.463-52.003-.415-73.482l-3.323-4.205c-3.605-4.561-10.875-3.009-12.303 2.626l-6.36 25.102c-.567 2.238-2.199 4.053-4.364 4.855l-24.283 8.992c-5.452 2.019-6.222 9.413-1.304 12.512l21.908 13.805c1.953 1.231 3.176 3.344 3.269 5.651l1.047 25.873c.235 5.809 7.029 8.827 11.497 5.107l19.899-16.569c.747-.622 1.606-1.061 2.512-1.328-2.813-2.69-5.429-5.662-7.78-8.939z"/><path d="m142.958 60.225c9.103-7.125 18.714-13.632 28.772-19.452 31.123-18.01 66.526-29.458 104.304-32.463-2.501-.2-5.012-.362-7.534-.487h-.03c-4.13-.21-8.29-.31-12.47-.31-45.27 0-87.72 12.11-124.27 33.26l6.73 11.66z"/><path d="m263.35 334.56c-2.42.24-4.87.35-7.35.35-43.57 0-78.89-35.33-78.89-78.9s35.32-78.89 78.89-78.89c2.48 0 4.93.11 7.35.35-30.79 12.8-52.44 43.13-52.44 78.55 0 35.41 21.65 65.75 52.44 78.54z"/></g></g><g><path d="m305.722 427.023-25.375-3.665-11.368-22.981c-2.465-4.985-7.449-8.08-13.009-8.08-.004 0-.009 0-.013 0-5.565.005-10.55 3.109-13.009 8.102l-11.327 23.002-25.37 3.709c-5.506.805-9.993 4.594-11.708 9.888s-.303 10.995 3.686 14.876l18.376 17.88-4.312 25.274c-.936 5.486 1.282 10.924 5.787 14.191 2.542 1.843 5.515 2.78 8.507 2.78 2.311 0 4.634-.559 6.779-1.689l22.683-11.951 22.705 11.911c4.929 2.584 10.784 2.157 15.284-1.118s6.707-8.716 5.762-14.201l-4.357-25.266 18.344-17.913c3.982-3.888 5.384-9.59 3.66-14.882s-6.217-9.072-11.725-9.867zm-20.941 32.109c-3.418 3.338-4.974 8.142-4.163 12.851l4.233 24.547-22.058-11.571c-4.231-2.221-9.282-2.216-13.509.012l-22.039 11.611 4.189-24.556c.804-4.71-.761-9.512-4.186-12.843l-17.854-17.372 24.648-3.604c4.727-.691 8.81-3.663 10.921-7.949l11.004-22.348 11.044 22.328c2.118 4.283 6.206 7.248 10.936 7.931l24.654 3.561z"/><path d="m484.839 337.543-24.06-8.86-6.341-24.843c-1.376-5.393-5.614-9.458-11.058-10.61-5.446-1.152-10.966.848-14.409 5.221l-15.862 20.144-25.585-1.646c-5.559-.365-10.73 2.416-13.509 7.238s-2.582 10.691.513 15.317l14.256 21.31-9.472 23.825c-2.056 5.172-1.018 10.952 2.709 15.084s9.37 5.758 14.726 4.245l24.672-6.974 19.732 16.371c2.668 2.214 5.932 3.358 9.242 3.358 2.003 0 4.024-.419 5.94-1.274 5.082-2.268 8.373-7.131 8.588-12.693l.992-25.62 21.667-13.708c4.704-2.976 7.261-8.262 6.674-13.796s-4.193-10.166-9.415-12.089zm-27.158 27.053c-4.039 2.554-6.56 6.93-6.745 11.705l-.963 24.892-19.171-15.906c-2.637-2.188-5.923-3.344-9.268-3.344-1.319 0-2.647.18-3.948.547l-23.971 6.775 9.203-23.147c1.766-4.44 1.233-9.461-1.424-13.434l-13.851-20.704 24.859 1.599c4.77.306 9.379-1.752 12.334-5.505l15.411-19.571 6.161 24.137c1.182 4.629 4.564 8.379 9.047 10.03l23.375 8.608z"/><path d="m124.42 316.896-25.583 1.692-15.897-20.115c-3.45-4.366-8.973-6.354-14.418-5.196-5.443 1.162-9.673 5.235-11.04 10.63l-6.296 24.854-24.044 8.903c-5.219 1.932-8.819 6.571-9.396 12.106-.577 5.536 1.989 10.817 6.698 13.785l21.692 13.669 1.037 25.619c.225 5.561 3.525 10.418 8.611 12.677 1.91.848 3.922 1.264 5.917 1.264 3.319 0 6.591-1.15 9.262-3.375l19.703-16.406 24.685 6.93c5.356 1.503 10.997-.132 14.718-4.272 3.72-4.139 4.748-9.92 2.683-15.088l-9.514-23.809 14.219-21.335c3.086-4.631 3.272-10.5.485-15.317-2.787-4.818-7.967-7.576-13.522-7.216zm-13.807 35.762c-2.65 3.977-3.173 9-1.4 13.436l9.244 23.132-23.984-6.734c-4.601-1.292-9.539-.236-13.209 2.821l-19.143 15.94-1.008-24.89c-.193-4.774-2.722-9.146-6.764-11.692l-21.075-13.281 23.361-8.649c4.48-1.66 7.856-5.416 9.029-10.047l6.117-24.147 15.445 19.544c2.963 3.749 7.583 5.795 12.345 5.483l24.856-1.644z"/><path d="m434.924 72.912c-48.106-47.018-111.649-72.912-178.924-72.912s-130.817 25.894-178.924 72.912c-48.025 46.939-75.373 109.712-77.004 176.761-.086 3.665 1.278 7.129 3.842 9.754 2.565 2.627 5.998 4.073 9.667 4.073h120.79c1.783 29.104 13.902 57.667 36.29 79.606 23.49 23.022 54.276 34.929 85.356 34.927 21.946-.001 44.042-5.94 63.804-18.096 3.528-2.17 4.629-6.79 2.458-10.318-2.17-3.527-6.788-4.63-10.318-2.458-41.866 25.752-95.653 19.681-130.801-14.769-42.002-41.158-42.804-108.896-1.787-150.999 32.02-32.866 81.328-41.682 122.689-21.939 3.723 1.783 7.991 2.174 12.03 1.1l46.858-12.553c1.208-.326 2.024.265 2.404.645s.97 1.198.643 2.413l-12.553 46.86c-1.069 4.015-.676 8.286 1.108 12.028 18.283 38.344 12.163 83.851-15.592 115.935-2.71 3.132-2.368 7.869.765 10.579 3.133 2.711 7.87 2.368 10.579-.765 17.829-20.609 27.829-46.073 29.44-72.197h120.676c3.668 0 7.101-1.446 9.667-4.073 2.564-2.625 3.928-6.089 3.841-9.759-1.631-67.043-28.979-129.816-77.004-176.755zm-305.653-21.364 21.669 37.801c-14.651 9.268-28.158 20.506-40.122 33.546-31.75 34.603-49.946 78.955-51.713 125.605h-43.995c2.548-82.743 47.863-155.474 114.161-196.952zm236.664 150.243 12.548-46.842c1.645-6.111-.046-12.432-4.522-16.909-4.478-4.477-10.8-6.168-16.9-4.525l-46.84 12.547c-.577.155-1.174.105-1.689-.141-47.171-22.516-103.394-12.467-139.902 25.005-21.154 21.714-32.552 49.409-34.263 77.573h-60.249c3.771-89.873 74.911-165.491 165.069-173.782 4.125-.379 7.161-4.03 6.782-8.155s-4.033-7.16-8.155-6.782c-25.917 2.383-50.823 9.858-73.467 21.796l-22.048-37.62c34.004-18.444 72.773-28.956 113.701-28.956 40.942 0 79.723 10.517 113.736 28.972l-21.876 37.717c-22.698-12.002-47.677-19.517-73.672-21.907-4.132-.379-7.777 2.657-8.155 6.782-.379 4.125 2.657 7.776 6.782 8.155 90.158 8.291 161.298 83.909 165.069 173.782h-60.157c-.943-15.33-4.77-30.611-11.635-45.007-.253-.529-.308-1.138-.157-1.703zm86.961 46.709c-1.767-46.65-19.963-91.002-51.713-125.605-12.13-13.221-25.846-24.592-40.733-33.933l22.186-37.477c66.354 41.466 111.713 114.227 114.254 197.015z"/><path d="m256 169.606c-47.638 0-86.394 38.756-86.394 86.394s38.756 86.394 86.394 86.394 86.394-38.756 86.394-86.394-38.756-86.394-86.394-86.394zm0 157.788c-39.367 0-71.394-32.027-71.394-71.394s32.027-71.394 71.394-71.394 71.394 32.027 71.394 71.394-32.027 71.394-71.394 71.394z"/><path d="m269.224 282.304c-7.91 5.746-18.537 5.746-26.447 0-3.352-2.436-8.042-1.692-10.476 1.659-2.435 3.351-1.692 8.041 1.659 10.476 6.591 4.789 14.315 7.184 22.04 7.184s15.449-2.395 22.04-7.184c3.351-2.435 4.094-7.125 1.659-10.476-2.433-3.35-7.124-4.094-10.475-1.659z"/><path d="m236.037 243.166v-14.176c0-4.142-3.358-7.5-7.5-7.5s-7.5 3.358-7.5 7.5v14.176c0 4.142 3.358 7.5 7.5 7.5s7.5-3.358 7.5-7.5z"/><path d="m283.463 221.49c-4.142 0-7.5 3.358-7.5 7.5v14.176c0 4.142 3.358 7.5 7.5 7.5s7.5-3.358 7.5-7.5v-14.176c0-4.142-3.358-7.5-7.5-7.5z"/></g></g></svg>