<svg width="175" height="48" viewBox="0 0 175 48" fill="none" xmlns="http://www.w3.org/2000/svg">
<path d="M24.063 44.2875C21.4305 44.7502 18.7517 44.889 15.9805 45.2585L7.52825 20.4797V46.3219C4.89573 46.5992 2.49409 46.969 0 47.3389V0H7.02051L16.6271 26.8597V0H24.063V44.2875ZM38.6118 17.336C41.4755 17.336 45.8632 17.1973 48.4957 17.1973V24.5938C45.2163 24.5938 41.3831 24.5938 38.6118 24.7326V35.7353C42.9534 35.4581 47.2949 35.0879 51.6824 34.9492V42.0681L31.2218 43.6864V0H51.6824V7.39671H38.6118V17.336V17.336ZM79.1632 7.39688H71.4964V41.4216C69.0023 41.4216 66.5082 41.4216 64.1069 41.5138V7.39688H56.4401V0H79.1636L79.1632 7.39688V7.39688ZM91.1716 16.8276H101.287V24.2242H91.1716V41.0056H83.9198V0H104.566V7.39671H91.1716V16.8276V16.8276ZM116.574 34.5333C120.777 34.6255 125.026 34.9497 129.137 35.1804V42.4848C122.532 42.0684 115.928 41.6529 109.184 41.5138V0H116.574V34.5333ZM135.372 42.9933C137.727 43.1322 140.221 43.2709 142.623 43.5479V0H135.372V42.9933V42.9933ZM175 0L165.624 22.5138L175 47.3389C172.229 46.969 169.457 46.4605 166.686 45.9981L161.375 32.3145L155.972 44.889C153.292 44.4263 150.706 44.2875 148.028 43.9177L157.542 22.2361L148.951 0H156.895L161.744 12.4357L166.917 0H175V0Z" fill="#D81F26"/>
</svg>
