<svg width="186" height="281" viewBox="0 0 186 281" fill="none" xmlns="http://www.w3.org/2000/svg">
<path d="M32.8938 25.1064C-28.0419 62.1956 14.3518 118.068 14.3518 118.068C17.0904 121.691 19.3421 128.373 19.3525 132.913L19.363 147.878C19.3683 152.418 17.1166 159.1 14.378 162.718C14.378 162.718 -28.0261 218.596 32.9095 255.69C93.8242 292.774 160.164 277.829 160.164 277.829C176.407 275.211 187.246 266.582 185.885 250.297C184.529 234.059 142.14 198.813 142.14 198.813C138.648 195.901 135.794 189.801 135.794 185.271L135.778 95.5513C135.778 91.0166 138.632 84.9215 142.125 82.0153C142.125 82.0153 184.513 46.764 185.869 30.4999C187.231 14.2357 176.381 5.58521 160.148 2.98273C160.148 2.98797 93.819 -11.9828 32.8938 25.1064ZM82.4927 174.118V193.356H101.035C101.035 193.356 104.145 197.43 104.067 203.735C103.972 210.029 100.673 212.877 100.673 212.877H82.4979V231.048C82.4979 231.048 80.173 233.315 74.0517 233.922C67.9304 234.519 62.982 231.414 62.982 231.414V212.171H43.7436C43.7436 212.171 41.6228 208.212 41.7852 202.52C41.9632 196.823 44.1049 192.649 44.1049 192.649L62.9768 192.728V174.558C62.9768 174.558 67.0507 171.384 71.9728 171.123C76.9003 170.861 82.4927 174.118 82.4927 174.118ZM103.627 85.8745C103.627 94.2998 96.8142 101.091 88.3993 101.091C79.9688 101.091 73.172 94.2998 73.172 85.8745C73.172 77.4858 79.9688 70.6419 88.3993 70.6419C96.8194 70.6419 103.627 77.4858 103.627 85.8745ZM61.7305 85.8745C61.7305 94.2998 54.9232 101.091 46.5084 101.091C38.0778 101.091 31.281 94.2998 31.281 85.8745C31.281 77.4858 38.0778 70.6419 46.5084 70.6419C54.9285 70.6419 61.7305 77.4858 61.7305 85.8745ZM84.2207 47.9527C84.2207 56.378 77.4134 63.1696 68.9933 63.1696C60.568 63.1696 53.766 56.378 53.766 47.9527C53.766 39.564 60.568 32.7201 68.9933 32.7201C77.4134 32.7201 84.2207 39.564 84.2207 47.9527Z" fill="#DD4C4C"/>
</svg>
