<svg width="174" height="118" viewBox="0 0 174 118" fill="none" xmlns="http://www.w3.org/2000/svg">
<path d="M160.516 117.271C152.386 117.271 147.564 113.116 147.195 107.132H154.969C154.969 109.126 156.075 111.782 160.884 111.947C164.218 111.947 166.062 109.952 166.062 108.453C165.693 106.128 162.729 105.963 159.778 105.454C156.444 104.972 153.862 104.298 152.004 103.472C149.422 102.138 147.933 99.305 147.933 96.3192C147.933 90.9956 152.386 86.841 160.147 86.841C167.551 86.841 172.36 90.6653 172.716 96.4844H165.325C165.325 94.9979 164.956 92.4949 160.516 92.4949C157.551 92.4949 155.707 92.9904 155.338 95.1503C155.338 98.1488 161.622 97.9836 166.431 99.1398C170.871 100.309 173.836 103.129 173.836 107.132C173.836 114.45 167.92 117.271 160.516 117.271" fill="black"/>
<path d="M18.8677 68.1708L44.3885 53.369L58.0777 76.8232H23.6767" fill="black"/>
<path d="M72.5342 116.388V86.7845Z" fill="black"/>
<path d="M72.5342 116.388V86.7845" stroke="black" stroke-width="12.8875"/>
<path d="M7.02269 102.025C7.02269 106.675 11.0938 110.499 15.5212 110.499C20.3429 110.499 24.0324 106.675 24.0324 102.025C24.0324 97.5399 20.3429 93.5504 15.5212 93.5504C11.0938 93.5504 7.02269 97.5399 7.02269 102.025V102.025ZM15.1522 117.322C7.02269 117.322 0 110.499 0 102.025C0 93.5504 7.02269 86.8927 15.1522 86.8927C18.4855 86.8927 21.4497 87.7313 24.0324 89.5482V87.2231H31.4367V116.649H24.0324V114.819C21.8187 116.484 18.4855 117.322 15.1522 117.322" fill="black"/>
<path d="M113.931 76.8164L78.4233 14.9667L103.944 -0.000185555L148.332 76.8164" fill="black"/>
<path d="M41.0544 102.025C41.0544 106.675 44.7566 110.499 49.5656 110.499C53.993 110.499 58.0768 106.675 58.0768 102.025C58.0768 97.5399 53.993 93.5504 49.5656 93.5504C44.7566 93.5504 41.0544 97.5399 41.0544 102.025ZM49.1967 117.322C40.6855 117.322 34.0317 110.499 34.0317 102.025C34.0317 93.5504 40.6855 86.8927 49.1967 86.8927C52.5172 86.8927 55.4815 87.7313 58.0768 89.5481V77.0841H65.4685V116.649H58.0768V114.819C55.4815 116.484 52.5172 117.322 49.1967 117.322" fill="black"/>
<path d="M48.832 41.7347L74.7218 27.1107L103.207 76.8145H76.1976V84.1328H68.806V76.8145" fill="black"/>
<path d="M169.04 84.3638C167.182 84.3638 165.337 82.6994 165.337 80.7046C165.337 78.7099 167.182 77.0454 169.04 77.0454C171.253 77.0454 172.742 78.7099 172.742 80.7046C172.742 82.6994 171.253 84.3638 169.04 84.3638ZM169.04 77.5537C167.182 77.5537 166.075 79.0402 166.075 80.7046C166.075 82.369 167.182 83.8683 169.04 83.8683C170.884 83.8683 171.991 82.369 171.991 80.7046C171.991 79.0402 170.884 77.5537 169.04 77.5537Z" fill="black"/>
<path d="M169.803 82.7124L169.065 81.048H168.327V82.7124H167.767V78.7229H169.434C169.803 78.7229 170.541 79.2311 170.541 79.8918C170.541 80.5525 170.172 80.8828 169.803 81.048L170.541 82.7124H169.803ZM169.065 79.2311H168.327V80.5525H169.065C169.803 80.5525 169.803 80.3873 169.803 79.8918C169.803 79.5487 169.803 79.2311 169.065 79.2311" fill="black"/>
<path d="M120.186 102.025C120.186 106.675 123.888 110.499 128.697 110.499C133.138 110.499 137.196 106.675 137.196 102.025C137.196 97.5399 133.138 93.5504 128.697 93.5504C123.888 93.5504 120.186 97.5399 120.186 102.025V102.025ZM128.316 117.322C119.817 117.322 113.164 110.499 113.164 102.025C113.164 93.5504 119.817 86.8927 128.316 86.8927C131.649 86.8927 134.613 87.7313 137.196 89.5482V87.2231H144.231V116.649H137.196V114.819C134.613 116.484 131.649 117.322 128.316 117.322" fill="black"/>
<path d="M86.1799 102.025C86.1799 106.675 90.251 110.499 94.6911 110.499C99.5001 110.499 103.202 106.675 103.202 102.025C103.202 97.5399 99.5001 93.5504 94.6911 93.5504C90.251 93.5504 86.1799 97.5399 86.1799 102.025ZM103.202 77.0841H110.594V116.649H103.202V114.819C100.976 116.484 98.0116 117.322 94.6911 117.322C86.1799 117.322 79.1572 110.499 79.1572 102.025C79.1572 93.5504 86.1799 86.8927 94.6911 86.8927C98.0116 86.8927 100.976 87.7313 103.202 89.5481V77.0841Z" fill="black"/>
</svg>
