<svg width="512" height="437" viewBox="0 0 512 437" fill="none" xmlns="http://www.w3.org/2000/svg">
<path d="M293.6 0H91.789C82.628 0 75.201 7.427 75.201 16.588C75.201 25.749 82.628 33.176 91.789 33.176H178.015C159.823 44.569 143.42 58.561 129.335 74.636H16.588C7.427 74.637 0 82.065 0 91.226C0 100.387 7.427 107.814 16.588 107.814H105.338C86.2 140.27 75.2 178.072 75.2 218.399C75.2 265.323 90.079 308.837 115.361 344.476H68.295C59.134 344.476 51.707 351.903 51.707 361.064C51.707 370.225 59.134 377.652 68.295 377.652H144.314C154.657 387.354 165.942 396.06 178.015 403.621H18.299C9.138 403.621 1.711 411.048 1.711 420.209C1.711 429.37 9.138 436.797 18.299 436.797H293.6C414.027 436.797 511.999 338.823 511.999 218.398C511.999 97.973 414.026 0 293.6 0ZM293.6 403.623C191.468 403.623 108.378 320.533 108.378 218.4C108.378 116.267 191.468 33.177 293.6 33.177C395.732 33.177 478.822 116.267 478.822 218.399C478.822 320.531 395.733 403.623 293.6 403.623Z" fill="#E43F3F"/>
<path d="M293.6 82.9067C218.889 82.9067 158.107 143.689 158.107 218.4C158.107 262.953 179.726 302.55 213.022 327.26C213.327 327.518 213.63 327.778 213.959 328.015C214.329 328.284 214.708 328.535 215.091 328.769C237.255 344.58 264.36 353.892 293.6 353.892C322.84 353.892 349.944 344.58 372.109 328.769C372.493 328.535 372.871 328.284 373.241 328.015C373.569 327.776 373.873 327.516 374.178 327.26C407.473 302.55 429.093 262.954 429.093 218.4C429.093 143.69 368.311 82.9067 293.6 82.9067ZM310.188 117.436C342.56 122.737 369.869 143.277 384.478 171.43L341.522 185.388C334.061 174.589 323.05 166.43 310.189 162.599V117.436H310.188ZM318.645 218.399C318.645 232.209 307.41 243.444 293.6 243.444C279.79 243.444 268.555 232.21 268.555 218.399C268.555 204.589 279.79 193.354 293.6 193.354C307.41 193.354 318.645 204.589 318.645 218.399ZM277.011 117.436V162.599C264.148 166.43 253.139 174.589 245.677 185.388L202.722 171.43C217.332 143.277 244.641 122.736 277.011 117.436ZM220.867 290.286C202.589 271.794 191.284 246.393 191.284 218.399C191.284 213.157 191.682 208.006 192.446 202.974L235.415 216.936C235.403 217.424 235.377 217.908 235.377 218.399C235.377 231.695 239.867 243.957 247.397 253.77L220.867 290.286ZM293.6 320.715C277.099 320.715 261.501 316.785 247.685 309.816L274.221 273.294C280.287 275.442 286.807 276.623 293.6 276.623C300.393 276.623 306.913 275.442 312.979 273.294L339.515 309.816C325.699 316.783 310.101 320.715 293.6 320.715ZM366.332 290.286L339.802 253.771C347.332 243.958 351.822 231.696 351.822 218.4C351.822 217.909 351.798 217.425 351.784 216.937L394.753 202.975C395.517 208.007 395.915 213.158 395.915 218.4C395.916 246.393 384.612 271.793 366.332 290.286Z" fill="#E43F3F"/>
</svg>
