<svg width="171" height="52" viewBox="0 0 171 52" fill="none" xmlns="http://www.w3.org/2000/svg">
<path d="M168.635 44.6858C168.503 44.3274 166.007 37.3882 164.445 33.0944C166.235 31.5297 167.868 29.0335 168.365 25.0442C168.886 20.9057 167.402 18.2363 166.067 16.7254C163.565 13.9067 159.268 12.4078 153.624 12.4018H134.537L133.771 15.3459H110.566L113.074 12.4078H93.5805L89.0199 17.5257L89.5824 15.3519H69.6578L64.5046 35.2024H55.6944L60.8357 15.3459H44.2568L45.0169 12.4138C45.0169 12.4138 44.9331 12.4094 40.7435 12.4094L40.8512 12.2842C42.4971 10.3075 43.1076 7.90083 42.527 5.66733C41.6472 2.28126 38.2297 0 34.0161 0C33.0106 0 31.9811 0.125223 30.9756 0.39434C28.6115 0.997491 26.5287 2.28148 25.1162 3.97752C24.5835 4.61651 24.1586 5.30325 23.8533 6.00794C22.5426 4.80159 20.8308 3.85209 18.8317 3.33852C17.8322 3.08153 16.8088 2.95023 15.7973 2.95023C11.5837 2.95023 8.16615 5.23149 7.28634 8.62354C6.71177 10.8511 7.31674 13.2637 8.96218 15.2344L8.97961 15.2517H5.56802L4.90966 17.7599C4.90966 17.7599 1.85122 29.5245 0.522536 34.6723C-0.578739 38.9243 0.0676912 42.7522 2.39594 45.7441C4.32312 48.2284 8.2733 51.1965 16.1498 51.1965C23.5534 51.1965 29.0479 49.602 32.9562 46.3293L32.6509 47.4999H61.3198L61.3154 47.5259H81.2401L81.6648 45.8896L82.6105 48.995H102.409L102.032 47.5199H145.91L146.951 43.5367L149.166 49.0189L170.186 48.9842L168.635 44.6858Z" fill="white"/>
<path d="M40.8573 15.6206C40.8573 15.6206 38.6488 15.6162 34.2198 15.6206C29.8147 15.6249 27.4026 16.3551 26.445 20.0398C26.4406 20.0745 21.6749 38.4272 21.4833 39.1617C21.1063 40.6248 20.1965 41.3355 18.0658 41.3534C16.6533 41.3664 15.5819 40.6248 15.959 39.1558C16.5335 36.9581 18.9336 27.7375 20.1725 22.9779C21.1242 19.2992 19.0833 18.5647 14.6662 18.5647H8.02863C8.02863 18.5647 4.97622 30.3294 3.64753 35.4771C1.74423 42.8285 6.48448 47.9762 16.1565 47.9762C31.3648 47.9762 34.3634 40.6248 35.7041 35.4771C37.2303 29.5948 40.8573 15.6206 40.8573 15.6206" fill="#E80028"/>
<path d="M85.004 45.7787L81.6044 33.2676L78.7436 44.3096H65.4805L72.148 18.5708H85.423L82.5741 29.6069L95.0352 15.6267H106.084L94.1674 29.5949L98.2612 45.7727L85.004 45.7787Z" fill="#E80028"/>
<path d="M63.7268 38.4212H51.529L56.6703 18.5647H43.443L36.8115 44.2856H62.2006L63.7268 38.4212Z" fill="#E80028"/>
<path d="M160.537 31.8163C162.613 30.8608 164.636 28.92 165.169 24.6501C166.013 17.9257 160.249 15.6206 153.612 15.6206C153.067 15.6162 137.033 15.6206 137.033 15.6206L129.599 44.2976L143.419 44.3019L146.274 33.2658L151.337 45.7948L165.6 45.7689C165.6 45.7689 161.746 35.0493 160.537 31.8125V31.8163ZM152.6 25.9123C151.954 28.5817 148.889 29.591 147.231 29.591L148.943 22.9742H150.607C152.265 22.9742 153.061 24.0432 152.6 25.9123Z" fill="#E80028"/>
<path d="M116.629 34.7426L125.434 34.7382L126.954 28.8619H118.114L119.071 25.1833H131.227L132.939 18.5664H107.562L100.858 44.2992L126.271 44.3036L127.792 38.4213H115.648L116.629 34.7426Z" fill="#E80028"/>
<path d="M39.4088 6.47763C40.0672 9.02761 37.7329 11.8464 34.1837 12.7601C30.6345 13.6738 27.223 12.3479 26.5646 9.78603C25.9002 7.23605 28.2344 4.41737 31.7837 3.50367C35.3328 2.58997 38.7444 3.92185 39.4088 6.47763" fill="#E80028"/>
<path d="M23.2548 12.7422C22.5904 15.2922 19.1788 16.624 15.6296 15.7043C12.0864 14.7906 9.74624 11.9778 10.4106 9.42184C11.0749 6.86588 14.4805 5.54016 18.0297 6.45386C21.5789 7.36755 23.9191 10.1803 23.2548 12.7422" fill="#E80028"/>
</svg>
